<svg xmlns="http://www.w3.org/2000/svg" width="1366" height="461.507"><defs fill="#000000"><style>.a{fill:#f44336}.b{fill:#480b05}.c{fill:#f47c36}.d{fill:#e9601d}.ap,.e{fill:#a9abdf}.cj{opacity:.46}.h{fill:#ffa283}.j{fill:#9bb9d1;opacity:.39}.k{fill:#fff}.o{fill:#d4d5ff}.p{fill:#8c4a00}.q{fill:#692100}.t{fill:#f44336}.u{fill:#ff8c64}.v{fill:#e33800}.w{fill:#540e00}.y{fill:#fd5e5a}.aa{fill:#d5f1f1}.ad{fill:#fc7575}.ae{fill:#e0002f}.ap{opacity:.54}.at{fill:#a64b28}.au{fill:#545454}.av{fill:#8b412b}.aw{fill:#233862}.ax{fill:#d9935c}.ay{fill:#e2923d}.az{fill:#d88029}.ba{fill:#cb8757}.bb{fill:#959bbe}.bc{fill:#4b4e5f}.bd{fill:#515259}.be{fill:#aaafcb}.bf{fill:#252730}.bg{fill:#bfc3d8}.bh{fill:#bbbfd5}.bi{fill:#2a8001}.bj{fill:#5b2e10}.bk{fill:#3f2310}.bl{fill:#39b54a}.bm{fill:#fff7cf}.bn{fill:#5db9f4}.bo{fill:#9cd4f8}.bp{fill:#fb8603}.bq{fill:#e3f6f0}.br{fill:#f57408}.bs{fill:#2a420f}.bt{fill:#6e287f}.bu{fill:#4e1a5b}.bv{fill:#7c3b7f}.bw{fill:#375618}.bx{fill:#2c4411}.by{fill:#42601f}.bz{fill:#3c6d0b}.ca{fill:#356604}.cb{fill:#549023}.cc{fill:#649b2f}.cd{fill:#3b9edb}.ce{fill:#e81515}.cf{fill:#e56f17}.cg{fill:#a1dd3a}.ch{fill:#eded45}.ci{fill:#f9f2f9}.cj{fill:#f44336}.ck{fill:#70748f}.cl{fill:#b5c53e}.cm{fill:#7a890b}.co{fill:#89bccb}.cq{fill:#b64c41}.cr{fill:#6a99a7}.cs{fill:#aa413e}.ct{fill:#415da5}.cx{fill:#006837}.cy{fill:#f13f00}.cz{fill:#ff3c00}.dc{fill:#466320}.dd{fill:#e7a8a6}.dg{fill:#ad7041}.di{fill:#b84c42}.dj{fill:#373737}.dk{fill:#ff0303}.dl{fill:#ffebb8}.dm{fill:#ea6c18}.dn{fill:#cc0202}.do{fill:#b20f0f;opacity:.35}.dq{fill:#594540}.dr{fill:#97f0ff}.dt{fill:#ff2a00}.du{fill:#4b6568;opacity:.49}.dz{fill:#e7a329}.eb{fill:#363a68}.eo{fill:#b5beff}.eh{fill:#f70000}.ei{fill:#bc0000}.ej{fill:#c60000}.ek{fill:#f40000}.el{fill:#00603b}.eo{opacity:.38}.ep{fill:#ecf0ff;opacity:.27}</style></defs><g transform="translate(0 -531.877)"><path class="a" d="M0 799.82h1366v193.565H0z" fill="#000000"/><path class="b" d="M337.026 647.994h259.828V799.77H337.026z" fill="#000000"/><path class="c" d="M303.787 643.633h299.549v26.63H303.787z" fill="#000000"/><path class="d" d="M375.86 652.14h266.874v159.397H375.86z" fill="#000000"/><ellipse class="e" cx="96.173" cy="35.687" rx="96.173" ry="35.687" transform="translate(405.551 708.833)" fill="#000000"/><path d="M501.728 708.833c-44.489 0-81.922 11.21-92.906 26.424 15.53-11.961 48.513-20.216 86.691-20.216 53.113 0 96.171 15.976 96.171 35.687a15.658 15.658 0 01-3.274 9.251c6.08-4.677 9.482-9.927 9.482-15.469.005-19.708-43.053-35.677-96.164-35.677z" fill="#4c1c14"/><path d="M375.86 653.735v45c15.712-16.759 266.874-24.336 266.874-24.336v-20.664z" opacity=".46" fill="#ec1000"/><path class="h" d="M519.795 590.333c17.482 0 18.539 38.333 28.539 37 3.386-.824 6.547-5.259 15.02-17.923 1.544-2.3 5.069-2.277 6.613-2.464s3.429-2.914 4.452-3.036.129 3.165-1.493 3.738 0 2.271 1.158 2.509 5.339.753 6.69-1.287 3.358-2.985 3.455-2.161-2.94 3.686-2.94 3.686 4.606-2.9 4.722-1.93-3.95 2.9-3.95 2.9 2.625-.643 3.255-.09-6.568 3.371-7.919 3.532-8.781-1.891-11.226-2.651-11.419 28.518-21.036 33.941a2.467 2.467 0 01-.894.431c-5.6 1.512-19.846-33.646-24.446-42.3-.033-.003-3.623-13.895 0-13.895z" fill="#000000"/><path d="M537 606c-.674-.844-8.333-19-22.333-17.667s-3.641 20.386-3.641 20.386 12.9 6.043 16.577 6.8c4.011.841 12.327-5.836 9.397-9.519z" fill="#d8e4ed"/><path class="j" d="M517.573 611.678a74.774 74.774 0 0010.03 3.847c1.041.217 2.21-.746 3.316-2.355-1.331-.669-2.675-1.345-2.879-1.471-4.749-2.972-9.52-12.008-9.312-17.826a12.714 12.714 0 00-.353-3.456c-.37-.192-.8-.433-1.146-.657-4.745-3.068-6.2 18.96-6.2 18.96l5.168 1.564s.53.564 1.376 1.394z" fill="#000000"/><path class="h" d="M465.047 613.717l-13.586 30.381 11.248.669 18.053-30.269z" fill="#000000"/><path class="k" d="M474.041 592.575l15.312 51.834 39.634.538s5.9-30.991 5.9-33.367-15.394-19.016-18.354-21.981-38.337-3.198-42.492 2.976z" fill="#000000"/><path class="j" d="M498.861 644.5l-24.82-51.925 15.291 51.813z" fill="#000000"/><path class="k" d="M474.042 592.575l-12.557 23.992 15.9 8.026 3.372-10.1s1.345-13.862-6.715-21.918z" fill="#000000"/><path d="M480.887 561.215c-1.057 5.439-5.83 9.084-10.659 8.145s-7.887-6.107-6.83-11.544 5.815-9.084 10.657-8.143 7.888 6.107 6.832 11.542z" fill="#26004a"/><path class="c" d="M506.137 588.184c-4.259-2.481-16.519-2.481-19.7.7s21.338 24.528 32.329 24.528c1.116.004-6.549-21.683-12.629-25.228z" fill="#000000"/><path class="h" d="M504.958 574.046s-3.089 16.39 0 19.479c2.423 2.423 7.684 11.248 10.128 14.816 3.234 4.724-.823 3.04-2.172 2.659-6.838-1.96-22.578-18.424-22.578-18.424l-.606-21.713z" fill="#000000"/><path d="M491.245 571.181c1.941 6.026 5.323 11.348 8.821 13.446a39.034 39.034 0 003.524 1.871 87.684 87.684 0 011.368-12.44z" fill="#ff682b" opacity=".68"/><path class="c" d="M519.793 611.738s.178-.444 2.231-.444 5.121 2.872 5.121 2.872-.935 2.126-4.052.7-3.3-3.128-3.3-3.128z" fill="#000000"/><path class="h" d="M504.9 546.287s12.135 18.76 8.687 30.433-17.527 2.127-23.01-3.939-2.245-31.154 14.323-26.494z" fill="#000000"/><path d="M509.897 539.429a8.318 8.318 0 01.312 9.754c-2.777 3.696-8.093 2.419-13.438 5.01s-8.092 17.183-8.092 17.183-19.166-.217-11.453-16.867 9.424-11.717 15.507-14.406c5.23-2.318 12.556-6.454 17.164-.674z" fill="#251514"/><path class="h" d="M491.6 565.102s-4.242-2.158-4.398.632 2.201 7.04 4.267 3.892.131-4.524.131-4.524z" fill="#000000"/><path class="c" d="M490.137 585.494a126.744 126.744 0 0112.532 13.191 57.254 57.254 0 009.433 9.429l6.66 5.292s-7.448-.269-10.792-2.018-2.706-3.692-6.709-3.692a10.981 10.981 0 01-8.526-3.763c-2.212-2.224-4.109-2.921-6.007-4.819s-6.08-9.529-4.75-10.867 8.159-2.753 8.159-2.753z" fill="#000000"/><path class="c" d="M520.751 613.345a2.668 2.668 0 11.067-2.042 2.67 2.67 0 01-.067 2.042z" fill="#000000"/><path class="c" d="M517.027 613.259s-3.482.893-3.482 3.3a4.093 4.093 0 01-1.429 3.391s3.349.4 4.911-1.169 0-5.522 0-5.522z" fill="#000000"/><path class="o" d="M347.036 643.633H651v26.63H347.036z" fill="#000000"/><path class="o" d="M347.036 643.633H651v5.692H347.036z" fill="#000000"/><path class="p" d="M470.084 628.101l-74.793-1.794-14.514-42.763 73.754-1.265z" fill="#000000"/><path class="q" d="M395.293 626.307l74.792 1.793-1.3-3.823c-9.5-.512-29.6-2.542-48.041-10.579-16.077-7.015-27.879-20.578-34.338-30.25l-5.631.1z" fill="#000000"/><path d="M425.609 605.516c-7.235 7.116-12.413 18.408-11.44 33.25l-10.87-1.626c2.96-16.923 11.718-28.354 20.917-34.073z" fill="#2374b8"/><path class="p" d="M438.1 643.633h-42.2v-7.736h34.466a7.736 7.736 0 017.734 7.736z" fill="#000000"/><path class="q" d="M393.351 635.895h34.466a7.735 7.735 0 017.735 7.735h-42.2v-7.735z" fill="#000000"/><path class="a" d="M2.621 829.954H587v17.431H2.621z" fill="#000000"/><ellipse cx="30.058" cy="6.08" rx="30.058" ry="6.08" transform="translate(286.008 805.457)" fill="#55ace9"/><path class="c" d="M334.71 812.678h-37.287l-7.121-45.805h51.525z" fill="#000000"/><ellipse class="t" cx="25.676" cy="2.43" rx="25.676" ry="2.43" transform="translate(290.476 764.438)" fill="#000000"/><path class="u" d="M353.102 664.789c-.129.143-5.107 5.2-11.129 12.674-9.613 11.926-22.358 29.7-25.433 41.245a22.078 22.078 0 00-.573 2.836q-.133 1.048-.262 2.159c-1.819 15.375-3.274 38.53-3.7 45.564l-1.422-.026c.437-7.308 2.023-32.525 3.975-47.886a21.916 21.916 0 01.535-2.724 34.58 34.58 0 011.01-3.2c7.123-19.409 34.656-50.188 35.949-51.63z" fill="#000000"/><path class="u" d="M317.854 769.293h-1.436c.412-2.874 2.306-18.6-.7-45.6q-.278-2.474-.61-5.072-.248-1.96-.536-3.994c-5.046-35.865 1.7-104.463 1.773-105.152l1.415.145c-.068.688-6.8 69.115-1.78 104.8.047.334.094.669.138 1q.234 1.663.435 3.274c3.736 29.461 1.799 46.923 1.301 50.599zM322.076 770.766l-1.382-.344c6.618-27.986 7.132-91.837 7.137-92.48l1.422.012c-.005.643-.522 64.662-7.177 92.812z" fill="#000000"/><path class="v" d="M315.987 770.62h-1.422c0-17.648-18.651-74.182-18.845-74.736l.858.978c.781 2.271 19.409 55.864 19.409 73.758z" fill="#000000"/><path class="w" d="M296.97 698.729c0 .016 2.907-9.8 2.759-15.256-.091-3.26-.173-8.026-1.078-11.337-.4-1.48-1.974-1.478-2.526-.016.016-.065-3.538-13.413-5.409-14.33-.6-.313-2.352 1.468-2.656.774-3.073-6.945-13.488-17.337-13.474-17.419.07 6.134.152 12.181.248 18.177 7.493 12.452 15.142 24.558 22.136 39.407z" fill="#000000"/><path class="c" d="M296.956 698.795c.049-.2-1.936-25.856-5.332-31.922a12.512 12.512 0 00-3.351-4.464 1.342 1.342 0 00-2.247 1.188v.309c-.016 1.674-1.81 2.4-2.367.97-3.04-7.843-6.08-15.607-9.071-23.728-.023.159-2.932 26.177 7.881 37.345 10.739 11.614 14.468 20.411 14.487 20.302z" fill="#000000"/><path class="t" d="M314.614 655.858s7.107-6.941 8.917-11.62c1.08-2.806 2.745-6.9 2.991-10.261a1.714 1.714 0 00-2.788-1.461s1.324-13.778-.285-15.78c-.514-.643-3.1-.152-3.152-.954-.5-8.068-7.506-23.731-7.506-23.731l-6.737 15.969z" fill="#000000"/><path class="o" d="M314.614 655.858s7.394-23.055 6.244-30.587a15.324 15.324 0 00-1.852-5.97c-.793-1.24-2.25-1.674-2.869-.339l-.126.271a1.52 1.52 0 01-2.9-.622l-.32-26.56s-13.13 20.875-6.354 37.859 8.177 25.948 8.177 25.948z" fill="#000000"/><path class="w" d="M342.516 675.01c.1.042-1.5-6.459 1.487-10.572 3.421-4.719 8.32-7.044 13.724-5.407 1.9.575 2.911 3.12 2.308 4.209a45.437 45.437 0 0114.8 3.054 5.2 5.2 0 012.7 2.759l.019.047c1.525 4 6.524 3.571 12.445 13.329 7.249 7.747 7.2 34.515 5.526 34.786a43.957 43.957 0 00-10.464-16.818c-7.392-23.38-28.402-31.864-42.545-25.387z" fill="#000000"/><path class="o" d="M341.973 677.138c.288-.594 0-5.685 8.666-7.981 6.562-1.738 15.754-2.612 20.553.255a39.483 39.483 0 017.125 4.611c1.756 1.427 2 4.041.526 3.707l-.3-.058c-1.588-.271-1.106 2.572.491 3.88 8.923 7.293 16.189 19.6 16.481 35.67 0-.3-11.29-20.111-27.36-32.179-17.38-12.773-26.03-7.97-26.182-7.905z" fill="#000000"/><path class="w" d="M333.038 649.75l-.935-2.907s-11.306 18.49-10.193 26.141a15.893 15.893 0 006.679 10.991z" fill="#000000"/><path class="o" d="M333.729 643.628s.975.7.975 3.618-6.26 37.649-6.26 37.649-4.733-8.418-4.036-14.83 8.137-25.254 9.321-26.437z" fill="#000000"/><path class="v" d="M326.762 770.615l-1.094-.22c5.8-31.606-6.138-48.085-6.868-49.054l-6.324-5.212.69-.914 5.975 4.988c.116.168 13.679 17.405 7.621 50.412z" fill="#000000"/><path class="w" d="M319.103 720.184c-.082 0 .426-7.537-1.574-11.262-1.23-2.214-3.141-5.481-5.909-7.266-1.237-.809-3.529.047-3.587 1.317.327-.292-12.083-6.276-15.808-4.733-1.1.355-2.444 2.907-3.311 2.848-9.2-2.081-31.068 10.724-30.657 11.76a89.9 89.9 0 0114.978 3.428c17.681-6.225 34.688-3.634 45.868 3.908z" fill="#000000"/><path class="c" d="M319.193 720.605c.033-.393-5.224-17.421-20.017-18.041-2.635-.11-5-.439-7.331.218-1.838.517-3.225 1.889-2.224 2.659l.2.157c1.057.865-.7 2.853-2.338 2.724a66.632 66.632 0 00-29.23 4.443c.089.613 18.6 8.994 36.4 6.281 18.602-1.661 22.968 1.84 24.54 1.559z" fill="#000000"/><path class="v" d="M308.819 770.853l.676-.138c-3.587-19.552 3.8-29.745 4.249-30.344l3.919-3.227-.426-.566-4 3.3c-.082.108-8.167 10.554-4.418 30.975z" fill="#000000"/><path class="c" d="M313.236 739.882c.051 0 .056-4.892 1.293-7.2a12.479 12.479 0 013.657-4.492c.765-.5 2.182.028 2.217.814-.2-.18 7.483-3.884 9.779-2.93.683.234 1.511 1.8 2.049 1.763 5.692-1.286 19.22 6.634 18.965 7.275a55.586 55.586 0 00-9.265 2.121c-10.939-3.847-21.778-2.018-28.695 2.649z" fill="#000000"/><path class="c" d="M313.236 739.986c-.486-.122 6.873-10.724 12.649-11.187a10.783 10.783 0 014.534.133c1.136.321 1.995 1.169 1.375 1.637l-.124.1c-.655.536.433 1.765 1.447 1.686a40.965 40.965 0 0118.078 2.755c-.056.379-11.713 3.767-22.73 2.088-11.504-1.026-15.171 3.187-15.229 2.788z" fill="#000000"/><g><path d="M145.078 549.668s-2.618 7.071.3 9.479 9.888 3.685 6.811 6.756-2.679 10.91 7.32 10.192 22.517 6.077 20.2 9.844-4.243 4.232-4.243 4.232 8.259 2.414 10.5-2.762 0-6.27 0-6.27a6 6 0 002.674-6.6c-.934-4.663-2.674-6.11-2.674-6.11s2.834-4.883 0-7.734-5.276 2.469-20.915-15.661c-4.251-4.862-17.752-.534-19.973 4.634z" fill="#407"/><path class="y" d="M152.315 625.676c-.447 2.077-1.1 4.878-1.525 6.259-3.6 11.728-8.551 34.554-8.551 38.266s1.4 3.712 0 5.662-.751 1.442-2.116 1.442-4.53.884-5.43.884-1.619-5.137 1.74-18.661c2.989-12.026 6.22-22.964 7.866-35.355.646.171 6.002 1.32 8.016 1.503z" fill="#000000"/><path d="M153.972 579.758c4.872-.5 1.486 31.366-1.851 46.956-2.011-.182-8.154-2.331-8.8-2.492.18-1.569 10.651-44.464 10.651-44.464z" fill="#a80022"/><path class="d" d="M108.884 752.124c10 10.772 58-1.735 62.263-6.331s-3.917-31.206-14.269-54.419-15.424-22.009-15.424-22.009c-17.948-4.373-42.569 71.986-32.57 82.759zm32.593-79.9c1.155.21 6.861 7.126 6.861 15.125 0 5.43-12.518 4.972-15.053 2.21-2.049-2.2-1.619-19.1 8.17-17.335z" fill="#000000"/><path class="aa" d="M108.884 752.124c-3.618-4.452-1.1-17.639.122-23.45 3.4-15.562 18.1-61.622 32.449-59.308-18.971-5.673-43.946 71.582-32.571 82.758z" fill="#000000"/><path d="M167.086 723.741a82.611 82.611 0 00-22.334-4.491c.11-.392.21-.79.309-1.188a83.819 83.819 0 0121.638 4.287c.128.464.255.922.387 1.392z" fill="#1b94ff"/><path d="M158.701 698.208s-6.8-8.441-14.031 3.817-.735 32-14.429 38.609-2.375 14.854-2.375 14.854l34.007-3.011 9.883-7.679z" opacity=".1" fill="#454aa0"/><path class="e" d="M129.411 689.574c.746 2.409-1.1 54.866-4.85 50.823s4.85-50.823 4.85-50.823zM126.599 691.375c0 4.022-9.828 58.087-11.9 51.856s11.9-51.856 11.9-51.856z" fill="#000000"/><path class="b" d="M107.204 748.682c10.634 5.673 56.976 7.463 61.379-6.043 3.453-10.59-15.053-58.3-27.477-73.333l.348.072s5.071-1.2 15.424 22.008 17.733 50.121 16.092 56.38c-3.127 11.9-54.087 15.142-64.081 4.37a7.984 7.984 0 01-1.685-3.453z" fill="#000000"/><path class="y" d="M142.675 674.846s1.05-4.5-.4-5.353-1.027 4.657-.823 4.872a4.424 4.424 0 001.223.481zM138.145 675.823c-.4-.425 1.657-7.888 2.613-7.888s-.552 7.888-.552 7.888z" fill="#000000"/><path class="y" d="M136.234 677.935l1.862-1.707s.282-7.993-.934-7.993-.928 9.7-.928 9.7zM134.758 668.62s-2.116 4.138-1.928 6.8 1.619 3.519 1.928 2.061.729-7.734.729-7.734z" fill="#000000"/><path class="ad" d="M135.855 780.905a52.612 52.612 0 00-10.01-2.762c-2.624 8.684-5.044 16.329-6.115 19.539s-1.95 6.077-2.762 8.612l6.469 1.591a29.505 29.505 0 001.718-5.464c.505-2.916 5.538-12.114 10.7-21.516z" fill="#000000"/><path class="ae" d="M120.667 794.533a3.408 3.408 0 011.409 4.359c-1.138 2.994-6.226 5.287-6.226 5.287l-2.21-3.9s3.624-.177 5.093-2.8a12.026 12.026 0 011.934-2.946z" fill="#000000"/><path class="k" d="M121.837 799.301a4.986 4.986 0 01-.26.552 4.861 4.861 0 00.5-.945 3.409 3.409 0 00-1.409-4.359 1.788 1.788 0 00-.309.365 3.458 3.458 0 011.48 4.386z" fill="#000000"/><path class="ae" d="M121.97 814.594l-7.016-3.491c-2.889-1.436-7.657-3.353-9.1-4.071s-5.1-6.994-4.243-8.021 5.474 1.657 8.529 1.519 8.734-1.265 9.75-1.149c1.591.177 4.519 3.348 4.972 4.657s-1.826 10.129-2.892 10.556z" fill="#000000"/><path d="M121.816 812.028c-10.684-7.69-9.015-2.27-18.832-11.269 2.21 2.558 5.773 5.767 8.949 6.6a28.137 28.137 0 015.027 2.094c1.657.791 3.243 1.681 4.856 2.575z" fill="#f2869d"/><path class="k" d="M115.49 804.841a.464.464 0 01-.646-.254 28.178 28.178 0 00-2.364-4.353l1.1-.2a30.136 30.136 0 012.177 4.1.553.553 0 01-.271.707zM116.877 803.129a.508.508 0 01-.552-.486 14 14 0 00-.663-3.132l.978-.193a14.577 14.577 0 01.663 3.237.552.552 0 01-.426.574z" fill="#000000"/><path class="y" d="M196.845 773.873a52.835 52.835 0 00-10.037 2.646c1.492 8.993 2.7 16.959 3.16 20.34s.928 6.325 1.348 8.988l6.4-1.884a26.653 26.653 0 00-.873-5.69c-.765-2.845-.434-13.49.002-24.4z" fill="#000000"/><path class="ae" d="M189.326 793.611a3.133 3.133 0 013.21 3.06c.365 3.215-3.033 7.894-3.033 7.894l-3.679-2.248s3.082-2.066 3.176-5.126a13.973 13.973 0 01.326-3.58z" fill="#000000"/><path class="k" d="M192.498 797.14a3.786 3.786 0 01.028.619 5.125 5.125 0 000-1.1 3.133 3.133 0 00-3.21-3.06 2.579 2.579 0 00-.1.48 3.182 3.182 0 013.282 3.061z" fill="#000000"/><path d="M199.349 810.636l-7.734.486c-3.176.2-8.22.933-9.805 1.033s-7.557-3.574-7.253-4.917 5.524-1.342 8.181-3 7.154-5.524 8.1-5.966c1.48-.652 5.452.657 6.414 1.591s2.842 9.856 2.097 10.773z" fill="#a80024"/><path d="M198.083 808.448c-12.783-1.353-8.944 2.574-21.544-.37 3.082 1.1 7.612 2.149 10.778 1.27a26.932 26.932 0 015.336-.724c1.81-.115 3.622-.148 5.43-.176z" fill="#ec496b"/><path class="k" d="M189.365 805.322a.464.464 0 01-.685.1 25.418 25.418 0 00-3.988-2.641l.862-.724a27.563 27.563 0 013.712 2.514.553.553 0 01.1.746zM189.835 803.113a.47.47 0 01-.674-.16 13.261 13.261 0 00-1.961-2.425c.265-.232.552-.458.784-.669a13.6 13.6 0 011.994 2.519.553.553 0 01-.143.735z" fill="#000000"/><path d="M186.808 776.519a52.835 52.835 0 0110.037-2.646c-.166 4.1-.326 8.181-.42 11.811a26.839 26.839 0 00-7.971 1.072c-.48-3.083-1.038-6.583-1.646-10.237z" fill="#dd0202"/><path d="M172.202 664.162l18.23 71.328s8.839 30.5 8.336 47.271l-13.645 3.1s-9.043-37.675-12.916-46.734l-16.131-54.817z" fill="#47496e"/><path class="y" d="M125.843 778.143a52.613 52.613 0 0110.01 2.762q-.912 1.657-1.817 3.314c-2.514-1.4-6.137-3.353-8.673-4.491z" fill="#000000"/><path d="M134.801 726.277c1.387-4.165 12.391-36.946 16.9-55.336l1.4-5.717-6.441-23.754 19.826-4.419 11.164 22.876a13.556 13.556 0 01.177 11.413c-7.342 16.313-27.759 62.153-27.754 67.4 0 6.414-2.016 11.109-2.944 19.992-.552 5.392-3.464 15.054-8.369 23.981-3.259-1.221-11.888-4.342-15.313-4.9 7.29-13.618 9.445-45.791 11.354-51.536z" fill="#9960c6"/><path d="M132.394 780.17a.431.431 0 00.409-.31s.2-.591.552-1.817a.481.481 0 00-.287-.591.442.442 0 00-.552.315c-.342 1.2-.552 1.768-.552 1.773a.475.475 0 00.265.6.36.36 0 00.165.03z" fill="#6b3f96"/><path d="M132.185 737.371c1.657-12.153.608-7.071 11.347-40 2.685-8.325 5.712-17.788 8.17-26.433-1.724 8.209-4.69 18.782-7.088 26.82-7.773 26.472-8.811 25.776-10.021 32.979-1.878 11.275-4.419 35.355-11.142 47.11 4.872-10.785 6.944-27.004 8.734-40.476z" fill="#b473f2"/><path class="ae" d="M153.972 579.758s3.79-1.906 19.208.486c.784.122 1.867 19.429 1.867 19.429s-7.866 32.77-6.43 40.879c0 0-10.1 10.855-23.2 3.867 0 0 3.071-28.383 1.9-34.068s-3.541-10.844-.138-16.727a151.894 151.894 0 006.793-13.866z" fill="#000000"/><path d="M157.231 646.513c11.374-5.4 3.939-16.738 5.033-21.644 1.232-5.524 3.64-4.972 2.326-9.391s-2.585-8.4 4.171-12.264a63.415 63.415 0 006.226-4.209 4.577 4.577 0 00.039.663s-7.866 32.769-6.43 40.879a21.921 21.921 0 01-11.365 5.966z" fill="#93001f" opacity=".6"/><path d="M146.58 610.578c-.486-3-2.32-7.579-1.735-12.081.613-4.265 1.271-3.259 9.1-18.722-5.43 14.877-8.9 15.214-7.673 22.865 1.027 6.436 2.033 5.408 1.983 12.485a235.752 235.752 0 01-2.878 29.278c.691-13.5 1.895-28.229 1.276-33.372z" fill="#f45380"/><path class="d" d="M156.043 757.676c10 10.772 58-1.735 62.263-6.331s-3.917-31.206-14.269-54.419-15.429-22.008-15.429-22.008c-17.943-4.37-42.563 71.986-32.565 82.758zm32.565-79.9c1.16.215 6.867 7.126 6.867 15.131 0 5.425-12.518 4.972-15.053 2.21-2.028-2.185-1.591-19.1 8.186-17.338z" fill="#000000"/><path class="aa" d="M156.044 757.676c-3.618-4.453-1.1-17.639.122-23.45 3.4-15.562 18.1-61.622 32.444-59.308-18.998-5.673-43.94 71.555-32.566 82.758z" fill="#000000"/><path class="ap" d="M176.571 695.098c.746 2.409-1.1 54.866-4.85 50.823s4.85-50.823 4.85-50.823zM173.756 696.926c0 4.022-9.828 58.087-11.9 51.855s11.9-51.855 11.9-51.855z" fill="#000000"/><path d="M205.855 703.76s-6.795-8.441-14.031 3.817-.729 32-14.429 38.614-2.37 14.849-2.37 14.849l34-3.011 9.888-7.679z" opacity=".1" fill="#a9abdf"/><path class="y" d="M192.577 624.565a60.181 60.181 0 00-7.734 5.878 5.667 5.667 0 00-.216-.7 9.318 9.318 0 00-1.779-2.6q3.95-3.06 7.734-6.408a42 42 0 011.995 3.83z" fill="#000000"/><path class="b" d="M154.364 754.207c10.634 5.668 56.976 7.458 61.379-6.077 3.453-10.584-15.053-58.3-27.477-73.334l.343.072s5.077-1.2 15.429 22.008 17.733 50.121 16.086 56.38c-3.121 11.9-54.082 15.142-64.081 4.37a7.867 7.867 0 01-1.679-3.42z" fill="#000000"/><path class="ad" d="M182.831 627.15q3.95-3.066 7.734-6.408c3.071 5.231 3.348 7.618 3.663 9.722 1.055 7.181-3.381 36.311-1.74 39.393s-.182 10.369-1.21 10.419-1.768.469-2.729.514a2.69 2.69 0 01-2.21-.939c-.751-.7-2.536.122-2.58-.933s2.083-7.612 2.049-8.458.983-35.057-1.177-40.708a9.32 9.32 0 00-1.8-2.602z" fill="#000000"/><path d="M166.926 591.055c.166-9.137 6.231-10.811 6.231-10.811 3.453-.171 13.672 28.2 19.418 41.564a49.8 49.8 0 01-9.745 6.38c-5.718-6.44-16.048-29.211-15.904-37.133z" fill="#e60d3a"/><path class="ad" d="M158.999 566.384c-.122-.624-.16-1.961-.271-3.64l-6.413 10.082c1.447-.32 6.01 6.971 6.187 9.518s-2.259 6.85-2.259 6.85 4.519-1.712 6.2-4.464a19.015 19.015 0 014.58-4.817s-7.408-10.347-8.024-13.529z" fill="#000000"/><path d="M158.729 562.722l-6.414 10.1c.37-.083.956.343 1.613 1.061a15.169 15.169 0 004.939-9.137c-.052-.571-.089-1.267-.138-2.024z" fill="#f71900" opacity=".44"/><path class="ad" d="M144.244 549.494a15.115 15.115 0 00-1.428 6.987c.059 4.3 1.942 19.54 5.9 18.253 1.695-.067 3.867-1.536 5.137-2.254a13.811 13.811 0 004.972-9.783c.461-6.919-2.339-19.95-14.581-13.203z" fill="#000000"/><path class="at" d="M143.084 552.065c.354.972 13.479-1.447 12.954 8.375s-3.895 21.4 6.485 19.335 2.607 6.745 3.248 8.458c2.723 7.319 22.649-1.3 17.258-15.573-2.293-6.077-5.657-4.812-2.011-8.745s.972-10.275-3.442-8.734-11.048-20.815-27.864-12.291c-4.473 2.259-8.373 4.405-6.628 9.175z" fill="#000000"/></g><g><path class="au" d="M1025.341 808.001h24.312a1.511 1.511 0 00.246-.081c.683-.324 1.01-1.6 1.15-3.116a39.465 39.465 0 00-.111-6.243s-8.287-6.921-9.556-1.782-8.162 7.314-12.075 7.865c-3.649.508-3.947 3.021-3.966 3.357z" fill="#000000"/><path class="au" d="M1047.081 808.001h25.626c1.622-1.455.786-9.441.786-9.441s-8.288-6.921-9.553-1.782-8.165 7.314-12.075 7.865a7.031 7.031 0 00-.816.16 5.869 5.869 0 00-3.968 3.198z" fill="#000000"/><path class="av" d="M1061.767 668.828l-.054 2.6c-.246 10.763-1.153 52.375-2.025 75.577-.037.845-.066 1.661-.1 2.458l-.052 1.258a250.737 250.737 0 01-3.581 30.983c-1.966 11.2-3.952 18.831-3.952 18.831-7.472 1.514-12.316-1.327-12.316-1.327s-2.013-17.386-2.78-27.908c-.246-3.414-1.475-15.064-3.025-29.235-1.2-10.959-2.581-23.428-3.852-34.768-.066-.6-.13-1.207-.2-1.8-2.05-18.333-3.746-33.264-3.746-33.264l13.211-1.258z" fill="#000000"/><path class="aw" d="M1055.957 781.702l-22.073-39.639c-1.2-10.959-2.581-23.428-3.851-34.768-.066-.6-.13-1.207-.2-1.8-2.05-18.333-3.746-33.264-3.746-33.264l13.211-1.259 22.417.46z" fill="#000000"/><path class="av" d="M1028.525 672.33s12.35 61.054 22.415 90.518 10.188 37.653 10.188 37.653 9.236 2 13.3-.322c0 0 2.325-55.86-3.765-70.7-4.028-9.812-7.108-30.7-6.061-38.219s2.025-22.612 2.025-22.612z" fill="#000000"/><path class="ax" d="M1043.523 590.358l13.731-3.871a54.855 54.855 0 01-3.141-11.655c-.447-3.3-.427-6.68.718-9.2.071-.155.147-.312.226-.462.523-.983.206-1.426-.491-1.536a7.851 7.851 0 00-4.64 1.475l-.1.079c-1.575 1.315-9.168 5.161-9.563 5.37h-.015a.777.777 0 01-.027.167v.054c-.042.287-.123.823-.2 1.558-.406 3.67-.723 12.186 3.502 18.021z" fill="#000000"/><path class="ay" d="M1063.345 675.589c-2.92 2.064-7.518 2.812-12.586 2.733a68.813 68.813 0 01-17.7-2.883 40.616 40.616 0 01-7-2.7c-7.821-4.08-6.709-9.509-6.523-29.83.189-20.739 12.953-47.548 15.253-52.036 4.09-7.99 22.445-5.041 22.445-5.041 4.026 1.929 5.456 8.356 5.849 16.769.435 9.34-.41 21.11-.41 31.843 0 8.878 1.674 16.713 2.893 23.231 1.576 8.457 2.387 14.655-2.221 17.914z" fill="#000000"/><path class="az" d="M1065.559 657.682c-3.532 7.442-10.485 15.818-14.8 20.645a68.812 68.812 0 01-17.7-2.883c-2.212-5.272-3.168-14.076-1.133-28.608 1.554-11.08 12.865-55.647 12.865-55.647 9.133-1.19 14.813 3.785 18.288 11.424.435 9.339-.41 21.11-.41 31.843.001 8.872 1.671 16.717 2.89 23.226z" fill="#000000"/><path class="ay" d="M1060.46 605.516s-1.777 25.349-1.755 35.837-8.325 38.381-8.325 38.381a57.741 57.741 0 01-7.688.165 8.873 8.873 0 01-3.986-1.475s1.833-32.957-1.664-45.59-3.686-38-3.686-38 1.941-5.476 13.569-3.748c13.803 2.057 13.535 14.43 13.535 14.43z" fill="#000000"/><path class="az" d="M1054.716 574.176s3.129 9.893 2.512 11.662c0 0-16.978 2.286-23.865 9 0 0 2.237-9.642 4.992-12.043s16.361-8.619 16.361-8.619z" fill="#000000"/><path class="ba" d="M1040.008 572.343c1.541 0 11.136.02 13.83 2.3a1.758 1.758 0 00.275.192c-.447-3.3-.428-6.68.718-9.2-.1-.772.113-1.61-.268-2-.858-.87-3.534.585-4.64 1.475l-.1.078c-1.575 1.315-9.168 5.161-9.563 5.37l-.042.175v.054c-.05.283-.132.821-.21 1.556z" fill="#000000"/><path class="ax" d="M1033.829 571.733s15.87 3.038 17.61-6.882 4.96-16.2-5.1-18.556-12.7 1.079-14.083 4.245-2.511 20.148 1.573 21.193z" fill="#000000"/><path class="aw" d="M1054.298 569.165s-.826-.627 2.387-5.5 4.738-3.534 4.778-8.723 1.966-8.3-4.053-11.684-5.063-6.508-8.676-7.255-8.868 2.227-11.97 1.6-12.812 12.016-6.592 15.007a9.863 9.863 0 004.916-1.106c2.025-1.251 9.477-2.517 10.35-.246s5.593 16.16 8.86 17.907z" fill="#000000"/><g transform="translate(4728.707 -4794.775)"><path class="bb" d="M-3748.504 5588.847h-3.884v-66.02h3.884z" fill="#000000"/><path class="bc" d="M-3757.743 5551.283l1.143-1.299 8.957 7.882-1.143 1.299zM-3772.228 5554.249l1.189-1.254 8.357 7.925-1.19 1.254z" fill="#000000"/><path class="bd" d="M-3720.937 5605.988a5.787 5.787 0 11-5.787-5.787 5.787 5.787 0 015.787 5.787zM-3763.853 5605.988a5.783 5.783 0 11-1.694-4.093 5.787 5.787 0 011.694 4.093z" fill="#000000"/><path class="bd" d="M-3768.247 5595.76a5.787 5.787 0 11-5.789-5.791 5.787 5.787 0 015.789 5.791zM-3731.147 5595.76a5.787 5.787 0 11-5.789-5.791 5.787 5.787 0 015.789 5.791z" fill="#000000"/><path class="be" d="M-3729.538 5591.457a1.225 1.225 0 01-.318-.045 1.151 1.151 0 01-.792-1.425l10.619-37.247a1.156 1.156 0 011.421-.792c.613.176.919 1.879.748 2.491l-10.583 36.18a1.159 1.159 0 01-1.095.838z" fill="#000000"/><circle class="bf" cx="4.105" cy="4.105" r="4.105" transform="rotate(-80.61 1429.738 5005.187)" fill="#000000"/><path class="be" d="M-3736.182 5597.273h-1.3a1.556 1.556 0 01-1.458-1.34l-1.144-5.877h6.29l-.919 5.808a1.564 1.564 0 01-1.469 1.409z" fill="#000000"/><path class="bg" d="M-3735.79 5595.541a1.152 1.152 0 11-1.152-1.147 1.152 1.152 0 011.152 1.147z" fill="#000000"/><circle class="bf" cx="4.105" cy="4.105" r="4.105" transform="rotate(-80.68 1407.088 5024.292)" fill="#000000"/><path class="be" d="M-3773.279 5597.273h-1.3a1.556 1.556 0 01-1.458-1.34l-1.144-5.877h6.29l-.919 5.808a1.564 1.564 0 01-1.469 1.409z" fill="#000000"/><path class="bg" d="M-3772.882 5595.541a1.152 1.152 0 11-1.152-1.147 1.152 1.152 0 011.152 1.147z" fill="#000000"/><path class="bf" d="M-3765.535 5605.988a4.084 4.084 0 11-4.084-4.084 4.084 4.084 0 014.084 4.084z" fill="#000000"/><path class="bh" d="M-3795.701 5513.078l3 32.8a9.707 9.707 0 007.511 8.2l.453.057.078.065a11.352 11.352 0 002.287.233h64.531l15.634-52.346-1.291-.923-91.427 11.056zm23.243 11.534l-13.58.527-.907-12.628 14.486-1.748zm18.3.527l13.7-.531-1.674 13.706-12.624.188zm15.111-.588l14.744-.576-3.047 14.119-13.375.2zm.817-17.925l-2.042 16.745-13.792.539.694-15.434zm18.158-2.193l-3.945 18.289-14.858.58 2.042-16.843zm10.39 17.729l-12.914.5 3.974-18.407 14.723-1.781zm-4.721 15.74l-11.562.176 3.055-14.152 12.832-.5zm-14.821 15.3l2.989-13.886 11.472-.171-4.162 14.05zm-13.351 0l1.666-13.657 13.261-.2-2.985 13.857zm-12.857 0l.6-13.449 12.526-.188-1.666 13.637zm-15.654-13.2l14.874-.225-.6 13.429h-14.27zm0-14.192l15.52-.608-.6 13.331-14.932.221zm0-15.205l16.275-1.969-.69 15.32-15.585.613zm-13.886 29.6l12.493-.184v13.184h-9.912a9.227 9.227 0 01-1.266-.086l-.372-.045zm-1-13.816l13.478-.523v12.91l-12.583.188zm-5.869 13.919l5.489-.082.506 7.053c.159 2.169.274 3.676.384 4.77l.07.715-.723-.3a8.189 8.189 0 01-5.224-6.677zm-1.225-13.641l5.742-.225.9 12.542-5.514.082zm-1.225-13.257l5.967-.723.9 12.514-5.767.229z" fill="#000000"/><path class="be" d="M-3718.659 5554.216l1.235-1.214 8.64 8.788-1.234 1.214zM-3714.731 5537.542l1.192-1.251 8.775 8.356-1.191 1.252zM-3709.992 5520.031l1.19-1.253 8.933 8.48-1.19 1.254zM-3693.426 5505.065l-12.142-2.838.58-1.058 12.636 2.528z" fill="#000000"/><path class="bc" d="M-3730.465 5554.24l1.211-1.232 8.934 8.783-1.211 1.233z" fill="#000000"/><path class="bi" d="M-3777.11 5521.507c-12.514 12.032-4.084 33.49 13.478 33.49a19.453 19.453 0 0019.453-19.457c.008-17.216-20.691-25.816-32.931-14.033z" fill="#000000"/><path class="bj" d="M-3774.941 5522.716c.609 1.05 4.864-1.4 4.256-2.451-.254-.445-4.861 1.397-4.256 2.451z" fill="#000000"/><path class="bk" d="M-3773.748 5511.109c-1.282 3.7-2.41 9.875 1.552 10.022v.184c-4.39.457-4.256-6.392-3.427-10.713z" fill="#000000"/><path class="bl" d="M-3776.154 5523.913c-2.716 19.98 3.676 25.452 14.9 28.086-15.7 1.197-21.3-14.506-14.9-28.086zM-3766.572 5518.644c17.9 9.279 18.7 17.656 14.4 28.348 9.999-12.15.401-25.759-14.4-28.348zM-3772.017 5523.199s5.411 22.871 16.471 26.3z" fill="#000000"/><path class="bm" d="M-3734.063 5525.559h-14.168v32.92h15.2z" fill="#000000"/><path class="bn" d="M-3728.929 5555.74l-4.1 2.736-1.029-32.918 1.029-6.776 2.667 7.662z" fill="#000000"/><path class="bo" d="M-3746.279 5518.783h13.245l-1.029 6.776h-14.168z" fill="#000000"/><path class="bn" d="M-3732.524 5516.117l-.51 2.667h-13.245v-2.667z" fill="#000000"/><path class="bc" d="M-3744.015 5554.218l1.235-1.214 8.64 8.788-1.234 1.214z" fill="#000000"/><path class="bp" d="M-3702.35 5527.385s-22.161-3.4-22.916-3.4 1.446 3.32-1.924 5.162-23.386 15.806-24.333 22.414 5.309 10.01 5.309 10.01l33.245-.376z" fill="#000000"/><path class="bq" d="M-3730.746 5532.294l22.005 5.759-10.292 16.814-27.67-8.973z" fill="#000000"/><path class="br" d="M-3732.633 5553.637s-4.031-2.52-5.1-.441.506 5.036.506 5.036-1.364-4.223.315-4.974 4.279.379 4.279.379zM-3716.203 5557.791s-3.169-3.4-6.126-2.487-2.021 4-2.021 4 .208-3.9 2.916-3.463a16.974 16.974 0 015.231 1.95zM-3747.176 5551.378s6.232 2.708 5.6 5.857-6.171 1.323-6.171 1.323 6.943.76 5.309-2.712a8.866 8.866 0 00-4.738-4.468z" fill="#000000"/><path class="bs" d="M-3752.156 5546.438c-1.135-.523-1.634-1.433-.743-2.369a3.045 3.045 0 014.537.547 3.9 3.9 0 01-.078 3.949 4.05 4.05 0 01-1.405 1.438 3.884 3.884 0 01-1.829.6l.147.67a5.415 5.415 0 003.5-2.5s1.438-2.451.155-4.493c-1.348-2.193-4.836-2.34-6.1-.216-.78 1.295.041 2.671 1.393 3.325z" fill="#000000"/><path class="bt" d="M-3775.782 5550.534c0-3.1 3.267-5.62 7.266-5.62a7.6 7.6 0 016.592 3.267c6 .261 10.619 1.94 10.619 3.978 0 .952-.939 1.634-1.682 2.042a14.832 14.832 0 01-4.493 1.454 49.608 49.608 0 01-5.759.719 37.812 37.812 0 01-5.607.065 10.3 10.3 0 01-4.247-1.225 5.2 5.2 0 01-2.389-2.716 5.716 5.716 0 01-.3-1.964z" fill="#000000"/><path class="bu" d="M-3775.464 5551.068a5.175 5.175 0 002.389 2.712 10.242 10.242 0 004.248 1.225 37.829 37.829 0 005.607-.065 49.615 49.615 0 005.759-.719 14.833 14.833 0 004.493-1.454 3.757 3.757 0 001.5-1.319 1.5 1.5 0 01.184.7c0 .951-.939 1.633-1.683 2.042a14.828 14.828 0 01-4.493 1.454 49.616 49.616 0 01-5.759.719 37.847 37.847 0 01-5.608.065 10.3 10.3 0 01-4.248-1.225 5.2 5.2 0 01-2.389-2.716 5.722 5.722 0 01-.319-1.944 4.086 4.086 0 01.049-.633 5.216 5.216 0 00.27 1.158z" fill="#000000"/><path class="bv" d="M-3754.492 5550.865s-8.258-.682-9.05-.964-.592-2.1-3.676-2.732-4.958.408-5.309 2.042 1.813 2.953 2.61 1.859 1.029-2.349 2.822-2.12a5.788 5.788 0 013.149 1.772z" fill="#000000"/><path class="bw" d="M-3755.181 5550.51l.874.449-.7.621.956.31-.927.641h-.028l1.037.592-.817.7 1.033.47-.139.674a3.811 3.811 0 003.382-2.585 3.358 3.358 0 00.033-.817c-.274-2.769-4.746-2.671-4.746-2.671l.686.437-.449.143.547.449z" fill="#000000"/><path class="bx" d="M-3754.806 5553.83l1.033.47-.139.674a3.81 3.81 0 003.382-2.585 3.347 3.347 0 00.033-.817 5.146 5.146 0 01-1.054 1.593c-1.029 1.033-1.634 1.017-1.634 1.017v-.5l-.845.029.719-.772-1.662-.441h-.029l1.037.592z" fill="#000000"/><path class="by" d="M-3751.134 5550.918a2.72 2.72 0 00-1.732-1.144c-1.225-.265-1.4-.081-1.4-.081l.629.408-.38.347.478.331-.547.38a6.677 6.677 0 012.952-.241z" fill="#000000"/><path class="bz" d="M-3776.558 5554.054c0 3.239 2.475 7.641 5.522 7.641s5.522-4.4 5.522-7.641-2.45-3.337-5.522-3.337-5.522.098-5.522 3.337z" fill="#000000"/><path class="ca" d="M-3767.058 5553.246a4.173 4.173 0 00-.755-3.382 2.783 2.783 0 00-.257-.233c-1.1-.878-5.011-.621-5.473-.29a3.694 3.694 0 00-1.291 2.806c0 .408.609 9.932 3.8 9.549 3.053-.372 3.699-5.743 3.976-8.45z" fill="#000000"/><path class="bx" d="M-3771.988 5544.436a4.386 4.386 0 011.225 1.156 2.087 2.087 0 01.286 1.981 8.638 8.638 0 00-.123 3.757l.147-.02c-.339-3.561 2.005-4.374-.1-6.984a5.344 5.344 0 00-.731-.76z" fill="#000000"/><path class="cb" d="M-3774.226 5552.852c0 3.749 1.429 8.846 3.19 8.846s3.194-5.1 3.194-8.846-1.429-3.868-3.194-3.868-3.19.117-3.19 3.868z" fill="#000000"/><path class="cc" d="M-3773.515 5553.103c0 1.981.858 3.586 1.92 3.586s1.923-1.605 1.923-3.586-.862-3.582-1.923-3.582-1.92 1.605-1.92 3.582z" fill="#000000"/><path class="cd" d="M-3736.456 5547.87l-.172 2.173-.074.968a25.874 25.874 0 01-.408 3.038c-.874 4.374-2.785 7.323-4.962 7.323h-22.675c-1.295 0-2.414-2.042-2.7-4.966l-1.523-15.542a13.42 13.42 0 01-.061-.984c-.106-3.6 1.135-6.784 2.761-6.784h24.439c3.402-.002 5.975 7.068 5.375 14.774z" fill="#000000"/><path class="ce" d="M-3749.084 5555.802h-7.654v-6.555h1.695l.976 4.346.592-4.346h4.39z" fill="#000000"/><path class="cf" d="M-3759.842 5557.056h19.412v2.667h-19.412z" fill="#000000"/><path class="cg" d="M-3764.44 5537.807h5.281v5.142h-5.281z" fill="#000000"/><path class="ch" d="M-3743.166 5544.024c-4.378-4.427-14.27-3.729-20.421 2.606l-.057.474c1.556-.159 16.986-1.7 20.421-2.606z" fill="#000000"/><path class="ci" d="M-3736.456 5547.87l-.172 2.173c-8.3-3.6-10.745-6.743-23.406-9.667a25.294 25.294 0 00-8.985-.5c-.106-3.6 1.135-6.784 2.761-6.784h24.439c3.391.002 5.964 7.072 5.363 14.778z" fill="#000000"/><path class="cj" d="M-3737.109 5554.052c-.87 4.374-2.789 7.323-4.962 7.323h-22.675c-1.291 0-2.414-2.042-2.7-4.966l-1.527-15.544c-.408-3.982.927-7.76 2.7-7.76h2.753c4.12 10.134 12.456 24.147 26.411 20.947z" fill="#000000"/><path class="ck" d="M-3787.468 5517.125l-8.234-4.047.768-.854 8.454 3.553zM-3786.381 5530.317l-6.285-6.261.082 1.866 6.371 6.473zM-3785.143 5545.359l-6.874-7.037.094 2.058 6.959 6.853z" fill="#000000"/><path class="be" d="M-3706 5544.296l-10.692.18 2.859-14.817 11.889-.515zm-26.024-16.153l-12.9.559.657-16.271 14.176-1.9zm4.292-17.933l15.752-2.116-3.753 19.342-13.96.6zm-4.546 20.249l-1.572 14.295-11.73.192.564-13.939zm-14.953-1.663l-14.682.637v-14.637l15.332-2.042zm-16.986.739l-12.689.551c-.306-4.746-.6-9.32-.849-13.159l13.539-1.818zm-14.989.649l-4.852.212-1.029-12.485 5.044-.674zm.151 2.3l.841 13-4.6.078-1.058-12.873zm2.3-.1l12.542-.543v13.408l-11.693.2c-.27-4.109-.568-8.617-.849-13.061zm14.846-.645l14.588-.633-.559 13.886-14.029.233zm13.935 15.556l-.564 13.992h-13.371v-13.763zm2.308-.041l11.566-.192-1.564 14.225h-10.586zm13.886-.229l12.289-.2-2.81 14.466h-11.043zm.253-2.312l1.581-14.36 13.768-.6-2.859 14.752zm30.223-17.913l-12.061.523 3.794-19.563 13.886-1.862zm-80.866 26.665l-.461-5.6 4.558-.073.466 7.225c.168 2.512.282 4.268.408 5.493a8.576 8.576 0 01-4.954-7.045zm7.286 7.735c-.135-1.948-.474-7.07-.886-13.445l11.542-.192v13.723h-9.455a8.325 8.325 0 01-1.184-.086zm64.309.086h-9.393l2.814-14.507 10.521-.176zm16.287-57.9l-92.2 12.391-.992 1.225 3.014 36.647a10.9 10.9 0 007.842 9.524.707.707 0 00.5.143h.057a10.47 10.47 0 002.385.27h64.872l15.81-58.766z" fill="#000000"/><path class="cl" d="M-3795.701 5513.078l8.225 3.933 2.512 30.223-8.111-5.987z" fill="#000000"/><path class="be" d="M-3768.884 5607.499h-1.3a1.556 1.556 0 01-1.458-1.34l-1.144-5.873h6.289l-.919 5.82a1.564 1.564 0 01-1.47 1.393z" fill="#000000"/><path class="be" d="M-3719.764 5601.438h-54.062a6.245 6.245 0 01-4.435-1.863l-5.412-5.53a2.883 2.883 0 012.042-4.9h52.077a1.156 1.156 0 010 2.308h-52.061a.576.576 0 00-.408.976l5.416 5.53a3.919 3.919 0 002.785 1.168h54.058a1.156 1.156 0 010 2.308z" fill="#000000"/><path class="be" d="M-3719.768 5601.437a1.117 1.117 0 01-.3-.041 1.152 1.152 0 01-.817-1.413l11.436-42.164a1.139 1.139 0 011.413-.817 1.063 1.063 0 01.629 1.413l-11.248 42.164a1.151 1.151 0 01-1.113.858z" fill="#000000"/><path class="bg" d="M-3768.492 5605.767a1.152 1.152 0 11-1.148-1.148 1.152 1.152 0 011.148 1.148z" fill="#000000"/><path class="bf" d="M-3722.603 5605.988a4.109 4.109 0 11-4.1-4.084 4.109 4.109 0 014.1 4.084z" fill="#000000"/><path class="be" d="M-3725.953 5607.499h-1.3a1.552 1.552 0 01-1.458-1.34l-1.148-5.873h6.294l-.919 5.807a1.565 1.565 0 01-1.47 1.405z" fill="#000000"/><path class="bg" d="M-3725.559 5605.767a1.152 1.152 0 11-1.148-1.148 1.152 1.152 0 011.148 1.148z" fill="#000000"/><path class="be" d="M-3685.601 5481.082a.98.98 0 00-1.18-.257l-8.246 3.835-9.961 17.027c.408.143.854.609 1.43.817l9.863-16.863 7.76-3.619a.633.633 0 00.335-.939zM-3693.826 5505.261a1.042 1.042 0 01-.368-.069.988.988 0 01-.408-1.246l10.459-17.562 8.246-3.839a.984.984 0 011.18.257.633.633 0 01-.319.956l-7.76 3.619-10.21 17.447a.993.993 0 01-.82.437z" fill="#000000"/><path class="cm" d="M-3674.627 5484.465a1.165 1.165 0 01-.756.139l-12.363-2.018a1.153 1.153 0 11.372-2.275l12.363 2.013a1.152 1.152 0 01.384 2.14z" fill="#000000"/></g><path d="M1040.028 677.57s-4.778 9.212-2.389 12.8 10.917-1.025 11.6-3.07 0-11.942 0-11.942z" fill="#da935b"/></g><g><path class="ax" d="M793.622 803.44l-1.512-1.753s8.529-9.467 11.148-14.287l7.2-13.3 9.428 2.33-11.967 16.958z" fill="#000000"/><path class="co" d="M864.075 546.712s-5.736-6.105-12.935-.312c-.005-.003 4.191-.728 12.935.312z" fill="#000000"/><path class="aw" d="M850.992 542.919a12.264 12.264 0 016.6-1.263 3.008 3.008 0 00-1.394-.661c1.131-.169 3.652.954 3.652.954 15.73-6.058 18.188 17.092 17.866 22.471s5.282 7.128 13.464 11.37c15.607 8.086 16.978 18.925 16.978 18.925-.12.071-.246.152-.384.246-.774-1.312-2.369-3.775-3.713-4.149a55.179 55.179 0 012.163 5.27c-4.6 3.5-13.218 11.262-19.222 16.765a8.81 8.81 0 00-.408-3.409l-.738 4.468c-3.212 2.949-5.427 5.031-5.427 5.031.4-4.348-19.662-27.281-30.12-34.163-2.549-3.75-3.441-10.374-3.522-10.9.44 5.252 1.34 8.2 2.143 9.856-8.855-8.149-3.694-37.537 2.062-40.811z" fill="#000000"/><path class="ax" d="M850.132 585.156c-.054.022 5.847 2.632 9.687 1.583 3.613-.983 5.972-5.667 5.921-5.68-1.529-.3-1.966-2.4-1.937-11.436l-.69.138-11.625 2.3s.263 3.66.271 7.105c.007 2.896-.966 5.68-1.627 5.99z" fill="#000000"/><path class="ba" d="M851.486 572.061s.263 3.66.27 7.106c6.506-.182 9.944-6.118 11.355-9.406z" fill="#000000"/><path class="aw" d="M864.311 568.495s3.409-5.387 4.227-9.993c.585-3.289-1.091-15.484-13.338-13.722a16.643 16.643 0 00-6.9 2.61c-2.659 1.794-6.5 5.673-2.212 16.31l1.116 3.593z" fill="#000000"/><path class="co" d="M805.15 782.752l6.164.189 6.67.2s15.406-17.153 24.047-44.653q.3-.959.639-1.939c4.731-13.791 14.535-31.1 19.7-46.772a248.822 248.822 0 002.841-9.169 165.742 165.742 0 005.926-31.2l-37.312.3s-6.021 63.395-28.675 133.044z" fill="#000000"/><path d="M836.447 653.647a50.171 50.171 0 0034.962 2.141c.224-.069 3.836-42.028 4.276-46.855 1.16-12.763 2.185-22.774 2.185-22.774-5.174-1.177-7.683-3.706-13.065-5.727-1.229 1.544-4.943 3.033-8.226 2.949-3.782-.084-5.036-1.691-4.839-3.461-4.031 2.244-7.219 4.35-7.219 4.35-3.426 5.961-8.074 69.377-8.074 69.377z" fill="#e7f0fd"/><path class="ax" d="M849.314 575.326s15.39.246 15.4-9.34 2.006-16.012-7.821-16.58-11.741 3.089-12.523 6.287.94 19.321 4.944 19.633z" fill="#000000"/><path class="aw" d="M844.823 550.368c2.374-2.878 4.178-2.251 5.181-1.386 3.325-4.972 13.837 2.212 13.837 2.212a18.279 18.279 0 005.99 10.814s-2.8 1.72-9.273.071c-5.088-1.31-8.782-8.553-10.126-11.581-.914.814-2.846 2.7-3.424 4.535-.767 2.441-1.114 7.467-2.578 7.3.005.007-3.171-7.639.393-11.965z" fill="#000000"/><path class="ax" d="M787.372 591.237a9.605 9.605 0 00-10.765-6.715c-.983.31-3.871 1.46-2.028 4.545 1.359 2.276 1.947 1.1 4.082 4.158s4.456 3.748 7.105 3.382zM860.846 801.215a621.44 621.44 0 011.519-7.865l-.231-17.676h10.735l-4.012 16.92a17.2 17.2 0 00.826 7.066s1.03 4.7-3.6 4.785-5.763-.351-5.237-3.23z" fill="#000000"/><path class="cq" d="M860.408 806.496h9.61c.506-2.369-.342-6.754-.342-6.754-5.238 4.8-8.513-.121-8.513-.121-.809 1.946-.762 6.4-.755 6.875zM786.854 806.475h11.8c1.064-.9 2.072-2.782 3.313-5.262a5.715 5.715 0 013.861-2.58v7.882h2.421l.012-.039 2.281-8.339c1.512-2.775.344-5.25-.72-7.445-1.229 0-4.785.8-11.087 7.9a8.263 8.263 0 01-6.636 3.095.378.378 0 01-.093.049c-3.643 1.642-4.791 3.662-5.152 4.739zM787.379 591.237s10.1 5.653 13.709 7.278c2.06.929 6.791 3.146 10.128 4.712a5.2 5.2 0 006.171-1.33c5.476-6.39 19.707-20.262 34.351-21.965 0 0-8.878 21.99-9.141 26.441s-1.05 72.814-1.05 72.814.523 3.144-5.5 1.834-7.595-2.62-7.595-2.62 5.764-42.163 4.191-56.829a32.7 32.7 0 01.622-9.5l-.152.093a75.149 75.149 0 01-19.326 7.745 105.685 105.685 0 01-16.595-9.851c-.681-.492-1.379-.983-2.084-1.5-3.387-2.482-9.339-11.945-9.339-11.945z" fill="#000000"/><path class="cr" d="M811.319 782.942l6.671.2s15.405-17.153 24.047-44.653q.3-.959.639-1.939c4.731-13.791 14.535-31.1 19.7-46.772a248.822 248.822 0 002.224-7.069c.211-.71.42-1.411.617-2.1l-5.5-4.178s-16.5 26.711-21.6 51.859c-4.432 21.843-22.205 48.116-26.798 54.652z" fill="#000000"/><path class="co" d="M859.145 730.637c-.1 12.225.523 40.33 2.116 51.965h5.9c3.266 0 4.9-.047 4.9-.047 3.994-20.23 6.835-36.97 8.9-51.395 1.7-11.837 3.2-21.985 4.365-30.722 1.167-8.792 1.981-16.153 2.271-22.366.044-.983.079-1.932.1-2.856s.024-1.833.017-2.7l-32.237-3.161c.406 21.42 3.722 54.177 3.668 61.282z" fill="#000000"/><path class="cr" d="M867.167 782.603c3.266 0 4.9-.047 4.9-.047 3.994-20.23 6.835-36.97 8.9-51.395 1.7-11.837 3.195-21.985 4.365-30.722 1.167-8.792 1.981-16.153 2.271-22.366l-11.829 6.958s7.55 2.664 4.669 22.83-9.265 71.888-13.276 74.742z" fill="#000000"/><path class="cq" d="M865.636 677.867s2.271 8.206 10.129 7.157 19.028-5.761 19.028-5.761-3.357-10.608-7.533-24.546c-5.053-16.873-11.306-38.626-14.255-52.351a85.158 85.158 0 01-1.6-9.354l-6.6-12.584s-9.635 21.749-10.158 27.25 10.989 70.189 10.989 70.189z" fill="#000000"/><path class="cs" d="M865.995 619.216c.352 8.9 2.445 26.19 21.137 35.441l.147.071c-5.053-16.873-11.305-38.627-14.255-52.351-3.456 5.12-7.221 11.924-7.029 16.839z" fill="#000000"/><path class="ct" d="M850.113 653.911l1.136-.071a62.875 62.875 0 010-6.838c.27-4.424 1.089-7.277 2.3-8.032l-.6-.966c-3.586 2.236-2.919 14.516-2.836 15.907z" fill="#000000"/><path class="ax" d="M836.051 637.044c.6-.6 2.576-.378 2.576-.378l7.961 1.411s8.72-2.016 17.593-5c1.818-.609 3.573-1.18 5.161-1.669l2.072 11.682c-.892.206-1.833.408-2.824.6-5.783 1.114-13.051 0-22.744 0s-3.8 1.106-5.741.492-4.661-6.533-4.054-7.138z" fill="#000000"/><path class="cq" d="M864.18 633.075a31.289 31.289 0 014.424 10.608c9.236-1.777 14.044-4.372 16.189-5.869l1.651-1.571c4.646-9.268.285-35.36.285-35.36-2.106-10.138-5.515-14.533-5.515-14.533-5.454-2.755-16.381-5.9-16.4-5.918l6.333 25.492 3.576 24.072a93.219 93.219 0 00-10.543 3.079z" fill="#000000"/><path class="ct" d="M848.325 653.568l15.818-2.473a34.825 34.825 0 00-11.168-14.747l1.271-.329c.332.214 7.1 4.689 11.06 14.882l3.052-.477a2.735 2.735 0 013.119 2.273l2.037 13.026a2.735 2.735 0 01-2.273 3.119l-20.035 3.138a2.738 2.738 0 01-3.119-2.276l-2.038-13.026a2.738 2.738 0 012.276-3.11z" fill="#000000"/><path class="cs" d="M797.197 610.051a105.3 105.3 0 0016.595 9.851 75.158 75.158 0 0019.325-7.744c.737-1.585 1.155-3.579-1.229-3.977-4.093-.683-14.781 9.209-17.512 8.868-1.907-.236-11.509-4.452-17.179-6.998z" fill="#000000"/></g><g><path d="M857.671 801.337h-15.849l11.038-6.672-1.2-5.285c2.522 0 3.129 1.663 5.675 1.663a54.88 54.88 0 01.336 10.294z" fill="#432c47"/><path d="M873.044 760.764h11.6l3.231 4.2-2.54 6.762-15.945-6.546z" fill="#102620"/><path class="bb" d="M791.747 763.863v36.436c0 9.008 7 16.3 15.615 16.3h47.12c8.63 0 15.615-7.3 15.615-16.3v-36.436zm22.389 40.838a2.4 2.4 0 01-2.33 2.4h-1.742a2.4 2.4 0 01-2.324-2.4v-14.527a2.4 2.4 0 012.324-2.4h1.742a2.4 2.4 0 012.33 2.4zm0-22.221a2.4 2.4 0 01-2.33 2.4h-1.742a2.4 2.4 0 01-2.324-2.4v-14.527a2.4 2.4 0 012.324-2.4h1.742a2.4 2.4 0 012.33 2.4zm10.336 22.221a2.4 2.4 0 01-2.324 2.4h-1.742a2.4 2.4 0 01-2.324-2.4v-14.527a2.4 2.4 0 012.324-2.4h1.742a2.4 2.4 0 012.324 2.4zm0-22.221a2.4 2.4 0 01-2.324 2.4h-1.742a2.4 2.4 0 01-2.324-2.4v-14.527a2.4 2.4 0 012.324-2.4h1.742a2.4 2.4 0 012.324 2.4zm10.348 22.221a2.4 2.4 0 01-2.33 2.4h-1.742a2.4 2.4 0 01-2.324-2.4v-14.527a2.4 2.4 0 012.324-2.4h1.742a2.4 2.4 0 012.33 2.4zm0-22.221a2.4 2.4 0 01-2.33 2.4h-1.742a2.4 2.4 0 01-2.324-2.4v-14.527a2.4 2.4 0 012.324-2.4h1.742a2.4 2.4 0 012.33 2.4zm10.342 22.221a2.4 2.4 0 01-2.324 2.4h-1.736a2.4 2.4 0 01-2.324-2.4v-14.527a2.4 2.4 0 012.324-2.4h1.748a2.4 2.4 0 012.324 2.4zm0-22.221a2.4 2.4 0 01-2.324 2.4h-1.736a2.4 2.4 0 01-2.324-2.4v-14.527a2.4 2.4 0 012.324-2.4h1.748a2.4 2.4 0 012.324 2.4zm10.342 22.221a2.4 2.4 0 01-2.33 2.4h-1.736a2.4 2.4 0 01-2.33-2.4v-14.527a2.4 2.4 0 012.33-2.4h1.736a2.4 2.4 0 012.33 2.4zm0-22.221a2.4 2.4 0 01-2.33 2.4h-1.736a2.4 2.4 0 01-2.33-2.4v-14.527a2.4 2.4 0 012.33-2.4h1.736a2.4 2.4 0 012.33 2.4zm10.342 22.221a2.4 2.4 0 01-2.324 2.4h-1.742a2.4 2.4 0 01-2.33-2.4v-14.527a2.4 2.4 0 012.33-2.4h1.742a2.4 2.4 0 012.324 2.4zm0-22.221a2.4 2.4 0 01-2.324 2.4h-1.742a2.4 2.4 0 01-2.33-2.4v-14.527a2.4 2.4 0 012.33-2.4h1.742a2.4 2.4 0 012.324 2.4zM873.225 763.862h-84.583a6.714 6.714 0 016.714-6.714h71.154a6.714 6.714 0 016.714 6.714z" fill="#000000"/><path d="M877.495 772.228a15.26 15.26 0 01.727-3.159c.306-.312-.487-2.943-.487-2.943l-1.573-1.952s-.306-4.018-.667-4.018a5.081 5.081 0 01-1.333-.5s-3.153-7.645-3.153-7.927-2.727-1.237-2.727-1.237l-2.745-.378-1.862-.691-3.994.5v2.907l-3.333-1.2-2.787 2.4v.066l-2.168 2.276-1.513-3-4.8.865-.913 6.654-3.6-4.955-5.453 2.594v6.174l-2.57-.733-1.429 2.655 2.847 8.672 8.786 4.8 7.153-3.465 6.294.6 7.939 2.714 3.453-4.168 2.3-1.9 1.76 1.8.12 2.781-.667.6-1.633 2.21c0 .889 2.486 1.9 2.486 1.9l2.72-1.393.787-3.724s2.859-3 2.859-3.6a8.368 8.368 0 00-.817-2.228z" fill="#009245"/><path class="cx" d="M865.009 766.824l1.333-24.167 1.7.384zM870.282 743.798l-5.273 23.188h.4l7.291-22.809z" fill="#000000"/><path class="cy" d="M869.255 762.962c.637 0 2.51.486 3 1.591.6 1.3-4.907 16.215-4.907 16.215h-3.6s2.871-17.806 5.507-17.806z" fill="#000000"/><path class="cy" d="M864.264 763.935c.637 0 2.5.487 3 1.592.6 1.291-4.907 16.215-4.907 16.215h-3.639s2.91-17.807 5.546-17.807z" fill="#000000"/><path class="cx" d="M875.069 744.873l-4.786 18.317.763.288 6.57-17.656z" fill="#000000"/><path class="cx" d="M878.036 748.728l-6.99 14.75.618.366 8.8-13.476z" fill="#000000"/><path class="cz" d="M868.606 763.935l.955.33s-.498.367-.955-.33zM869.027 765.07l.955.336s-.499.367-.955-.336zM870.234 764.559l.955.336s-.505.367-.955-.336zM867.651 765.22l.955.336s-.48.349-.955-.336z" fill="#000000"/><path class="cd" d="M875.471 793.747l-.222 2.961-.1 1.315a36.982 36.982 0 01-.541 4.138c-1.135 5.952-3.639 9.969-6.48 9.969h-29.6c-1.694 0-3.153-2.8-3.525-6.762l-1.994-21.17c-.036-.45-.072-.9-.078-1.339-.138-4.9 1.483-9.237 3.6-9.237h31.914c4.444 0 7.801 9.633 7.026 20.125z" fill="#000000"/><path class="ce" d="M858.979 804.54h-9.993v-8.924h2.21l1.279 5.916.769-5.916h5.735z" fill="#000000"/><path class="cf" d="M844.932 806.25h25.35v3.633h-25.35z" fill="#000000"/><path class="cg" d="M838.933 780.042h6.888v7.003h-6.888z" fill="#000000"/><path d="M875.471 793.747l-.222 2.961c-10.81-4.907-14.035-9.189-30.562-13.17a31.829 31.829 0 00-11.753-.678c-.138-4.9 1.483-9.237 3.6-9.237h31.914c4.441-.001 7.798 9.632 7.023 20.124z" fill="#f7931e"/><path class="cj" d="M874.612 802.155c-1.135 5.964-3.639 9.975-6.48 9.975h-29.6c-1.687 0-3.153-2.811-3.525-6.762l-1.988-21.17c-.51-5.405 1.2-10.576 3.525-10.576h3.6c5.359 13.813 16.248 32.899 34.468 28.533z" fill="#000000"/><path class="cz" d="M870.438 766.073l.955.336s-.505.361-.955-.336zM868.606 766.397l.955.33s-.498.379-.955-.33zM869.369 767.706l.955.336s-.499.373-.955-.336zM869.627 769.13l.955.33s-.499.367-.955-.33zM868.3 767.79l.955.336s-.498.361-.955-.336zM867.567 768.829l.949.336s-.498.343-.949-.336zM863.958 767.436l.967.276s-.475.397-.967-.276zM864.655 768.307l.973.276s-.505.415-.973-.276zM865.459 767.706l.955.324s-.493.376-.955-.324zM863.039 768.133l.973.276s-.481.397-.973-.276zM863.958 769.508l.967.276s-.475.397-.967-.276zM865.009 770.709l.973.276s-.483.373-.973-.276z" fill="#000000"/><path class="cd" d="M848.86 789.706l-.252 3.321-.108 1.477a44.032 44.032 0 01-.6 4.648c-1.279 6.684-4.084 11.194-7.273 11.194h-33.241c-1.9 0-3.537-3.153-3.952-7.6l-2.24-23.764a21.532 21.532 0 01-.084-1.507c-.162-5.5 1.657-10.372 4.042-10.372h35.829c4.978.003 8.749 10.813 7.879 22.603z" fill="#000000"/><path class="ce" d="M830.338 801.83H819.12v-10.023h2.486l1.429 6.642.865-6.642h6.438z" fill="#000000"/><path class="cf" d="M814.568 803.745h28.46v4.072h-28.46z" fill="#000000"/><path class="cg" d="M807.83 774.312h7.741v7.861h-7.741z" fill="#000000"/><path d="M848.86 789.706l-.252 3.321c-12.167-5.507-15.759-10.312-34.31-14.78a35.568 35.568 0 00-13.212-.769c-.162-5.5 1.657-10.372 4.042-10.372h35.829c5.002 0 8.774 10.81 7.903 22.6z" fill="#ffcb57"/><path class="cj" d="M847.893 799.146c-1.279 6.69-4.09 11.2-7.273 11.2h-33.24c-1.892 0-3.537-3.153-3.952-7.6l-2.24-23.758c-.6-6.09 1.363-11.885 3.958-11.885h4.036c6.029 15.515 18.256 36.937 38.711 32.043z" fill="#000000"/><path class="be" d="M800.479 763.863v36.436c0 9.008 7 16.3 15.615 16.3h47.114c8.63 0 15.615-7.3 15.615-16.3v-36.436zm12.041 40.838a2.4 2.4 0 01-2.324 2.4h-1.742a2.4 2.4 0 01-2.324-2.4v-14.527a2.4 2.4 0 012.324-2.4h1.742a2.4 2.4 0 012.324 2.4zm0-22.221a2.4 2.4 0 01-2.324 2.4h-1.742a2.4 2.4 0 01-2.324-2.4v-14.527a2.4 2.4 0 012.324-2.4h1.742a2.4 2.4 0 012.324 2.4zm10.348 22.221a2.4 2.4 0 01-2.33 2.4h-1.742a2.4 2.4 0 01-2.324-2.4v-14.527a2.4 2.4 0 012.324-2.4h1.742a2.4 2.4 0 012.33 2.4zm0-22.221a2.4 2.4 0 01-2.33 2.4h-1.742a2.4 2.4 0 01-2.324-2.4v-14.527a2.4 2.4 0 012.324-2.4h1.742a2.4 2.4 0 012.33 2.4zm10.336 22.221a2.366 2.366 0 01-2.318 2.4h-1.748a2.4 2.4 0 01-2.324-2.4v-14.527a2.4 2.4 0 012.324-2.4h1.754a2.4 2.4 0 012.318 2.4zm0-22.221a2.366 2.366 0 01-2.318 2.4h-1.748a2.4 2.4 0 01-2.324-2.4v-14.527a2.4 2.4 0 012.324-2.4h1.754a2.4 2.4 0 012.318 2.4zm10.348 22.221a2.4 2.4 0 01-2.324 2.4h-1.742a2.4 2.4 0 01-2.33-2.4v-14.527a2.4 2.4 0 012.33-2.4h1.742a2.4 2.4 0 012.324 2.4zm0-22.221a2.4 2.4 0 01-2.324 2.4h-1.742a2.4 2.4 0 01-2.33-2.4v-14.527a2.4 2.4 0 012.33-2.4h1.742a2.4 2.4 0 012.324 2.4zm10.342 22.221a2.4 2.4 0 01-2.324 2.4h-1.751a2.4 2.4 0 01-2.324-2.4v-14.527a2.4 2.4 0 012.324-2.4h1.748a2.4 2.4 0 012.324 2.4zm0-22.221a2.4 2.4 0 01-2.324 2.4h-1.751a2.4 2.4 0 01-2.324-2.4v-14.527a2.4 2.4 0 012.324-2.4h1.748a2.4 2.4 0 012.324 2.4zm10.342 22.221a2.4 2.4 0 01-2.324 2.4h-1.742a2.4 2.4 0 01-2.324-2.4v-14.527a2.4 2.4 0 012.324-2.4h1.742a2.4 2.4 0 012.324 2.4zm0-22.221a2.4 2.4 0 01-2.324 2.4h-1.742a2.4 2.4 0 01-2.324-2.4v-14.527a2.4 2.4 0 012.324-2.4h1.742a2.4 2.4 0 012.324 2.4zm10.342 22.221a2.4 2.4 0 01-2.324 2.4h-1.723a2.4 2.4 0 01-2.324-2.4v-14.527a2.4 2.4 0 012.324-2.4h1.741a2.4 2.4 0 012.324 2.4zm0-22.221a2.4 2.4 0 01-2.324 2.4h-1.723a2.4 2.4 0 01-2.324-2.4v-14.527a2.4 2.4 0 012.324-2.4h1.741a2.4 2.4 0 012.324 2.4z" fill="#000000"/><path class="dc" d="M800.479 763.863h78.373v1.081h-78.373z" fill="#000000"/><path class="bb" d="M881.939 763.862H797.38a6.708 6.708 0 016.708-6.714h71.154a6.708 6.708 0 016.697 6.714z" fill="#000000"/><path class="be" d="M799.218 758.95h80.667a3.91 3.91 0 011.381.246 4.006 4.006 0 00-3.459-2.048h-76.505a4.012 4.012 0 00-3.465 2.048 3.933 3.933 0 011.381-.246z" fill="#000000"/><path class="cm" d="M818.34 762.332l.1.715a3.6 3.6 0 01-3.207 4l-34.232 4.162-1.015-7.807 34.2-4.162a3.669 3.669 0 014.154 3.092z" fill="#000000"/><path class="dd" d="M815.409 761.437a1.645 1.645 0 011.85 1.393 1.615 1.615 0 01-1.435 1.8 1.651 1.651 0 01-1.856-1.393 1.622 1.622 0 011.441-1.8z" fill="#000000"/><path d="M849.545 762.344l.138-.709a3.7 3.7 0 014.324-2.859l33.865 6.186-1.507 7.747-33.854-6.2a3.6 3.6 0 01-2.967-4.162z" fill="#6a780a"/><path class="dd" d="M852.055 764.067a1.61 1.61 0 01-1.321-1.874 1.652 1.652 0 011.934-1.279 1.6 1.6 0 011.321 1.874 1.652 1.652 0 01-1.934 1.279z" fill="#000000"/></g><g><path class="ax" d="M1102.806 607.633c.016-.777.906-1.347.906-1.347s-.832-1.151-.37-1.737.797-.533.797-.533c1.252.9 6.38 2.688 6.38 2.688s-1.954-2.903-1.198-3.86 1.775 1.668 3.495 2.911 6.482 7.503 7.12 7.954 23.343 5.285 23.343 5.285c2.404-1.185 7.003 13.809.448 12.863-7.835-1.139-28.87-15.641-28.87-15.641s-10.609-4.3-10.753-5.323a5.042 5.042 0 01-.053-1.487s-1.26-.99-1.245-1.773z" fill="#000000"/><path class="at" d="M1112.478 610.536l-10.852-11.225 2.512-2.41 8.716 11z" fill="#000000"/><path d="M1101.233 601.992l.393-2.681 10.852 11.225-.838 1.118z" fill="#18287d"/><path class="y" d="M1103.348 604.586s3.806-3.17 5.146-2.54-4.775 4.357-4.775 4.357z" fill="#000000"/><path class="y" d="M1104.075 609.547s4.621-3.386 4.946-4.957-5.309 1.701-5.309 1.701z" fill="#000000"/><path class="y" d="M1104.608 611.175s5.886-3.288 5.712-4.529-6.258 2.81-6.258 2.81z" fill="#000000"/><path class="dg" d="M1176.794 801.451a2.354 2.354 0 01-1.536 2.04c-1.635.715-4.373.553-7.334.155a25.764 25.764 0 00-1.025-.118l-.246-.02-.184-.015c-2.949-.194-2.716.715-8.357.686-6.419-.032-8.59-2.195-8.887-3.116-.246-.784 2.566-1.389 5.709-2.089l.457-.1 1.258-.285c3.746-.88 7.457-1.989 8.684-5.589 1.3-3.819.983-15.147.983-15.147h11.372s-2.984 12.515-2.672 16.123c.17 1.925 1.091 2.473 1.445 4.141.025.118.049.246.069.352a11.125 11.125 0 01.264 2.982z" fill="#000000"/><path class="ct" d="M1190.016 678.998c-.958 5.388-2.327 10.954-3.517 16.745-1.91 9.31-3.353 19.2-1.878 29.852a36.956 36.956 0 01.315 4.51c.287 18.822-8.123 52.936-8.123 52.936a14.915 14.915 0 01-6.115.8 19.488 19.488 0 01-4.994-1.369s-.8-21.152-.846-49.593c-.032-20.618-4.082-47.765-4.9-63.718a205.462 205.462 0 01.578-22.513s16.767-13.484 22.789-6.584c5.954 6.811 10.29 18.781 6.691 38.934z" fill="#000000"/><path d="M1184.632 725.596a36.953 36.953 0 01.314 4.51c-12.554-18.188-15.332-57.861-15.332-57.861l13.791 6.693s1.512 7.44 3.1 16.806c-1.896 9.31-3.35 19.2-1.873 29.852z" fill="#355493"/><path class="dg" d="M1213.073 801.369a2.342 2.342 0 01-1.534 2.03h-.012c-1.635.715-4.373.551-7.332.153a26.3 26.3 0 00-1.028-.118l-.246-.02a.757.757 0 01-.184-.015c-2.95-.194-2.716.713-8.357.684-6.422-.037-8.6-2.193-8.89-3.112-.246-.779 2.563-1.384 5.707-2.079l.459-.1c.418-.091.838-.189 1.256-.282 3.748-.875 7.457-1.981 8.684-5.569 1.3-3.8-.563-14.921-.563-14.921l10.534-.872s-.649 12.665-.337 16.26c.172 1.92 1.15 2.974 1.5 4.638.027.118.049.246.071.349a11.167 11.167 0 01.272 2.974z" fill="#000000"/><path class="ct" d="M1211.581 784.003a25.448 25.448 0 01-4.657 1.674c-1.954.391-6-.374-6-.374a276.076 276.076 0 00-5.727-35.451 331.15 331.15 0 00-17.138-54.317c-1.664-3.932-8.529-22.548-9.693-27.245-3.522-14.194.015-12.665.015-12.665l30.784-3.61s3.792 1.949 5.54 21.99c.521 6 .587 31.919 1.374 36.832a54.349 54.349 0 002.645 11.036c5.718 14.041 2.857 62.13 2.857 62.13z" fill="#000000"/><path class="di" d="M1213.066 801.409a2.376 2.376 0 01-1.539 2.069h-.012c-1.72.627-4.439.492-7.349.14a16.709 16.709 0 00-1.035-.1l-.246-.02a.761.761 0 01-.184-.015c-2.367-.157-2.691.4-5.626.617h-4.655c-4.972-.4-6.739-2.251-7.007-3.089-.246-.791 2.573-1.408 5.727-2.119a18.814 18.814 0 009.726 1.748c4.338-.42 8.764-2.182 11.874-2.62.027.118.049.246.071.356a11.581 11.581 0 01.256 3.035zM1176.784 801.475a2.457 2.457 0 01-1.541 2.118h-.015c-1.72.644-4.424.514-7.332.165a23.639 23.639 0 00-1.035-.105c-.081 0-.16-.015-.246-.017a.728.728 0 01-.182-.015 13.6 13.6 0 00-4.031.46h-7.848c-3.738-.629-5.136-2.18-5.368-2.934-.246-.811 2.571-1.448 5.717-2.183a18.368 18.368 0 009.706 1.757c4.328-.44 8.752-2.251 11.856-2.7.024.123.049.246.069.364a12.083 12.083 0 01.25 3.09z" fill="#000000"/><path class="dj" d="M1164.478 559.847c-1.04-8.492 1.613-22.081 18.561-19.908s22.29 18.829 18.871 26.234 4.916 9.192 7.541 17.158c2.247 6.842 3.031 15.337 6.671 19.149 11.734 12.289-11.264 31.194-25.128 27.208-25.252-7.26-28.511-8.356-27.609-28.183.46-10.168 8.369-14.105 3.347-17.047-12.132-7.111.098-5.4-2.254-24.611z" fill="#000000"/><path class="ax" d="M1193.094 639.591a92.884 92.884 0 014.773 16.59l-37.515.467s.523-30.172-1.2-40.851 10.426-34.163 10.426-34.163c.224 0 1.662-.263 4.2-.418a18.507 18.507 0 00.883-3.608 25.408 25.408 0 00.135-5.99c-.064-.649-.125-1.027-.125-1.027l12.254-3.731.356-.108c.15 3.335.337 5.943.538 7.983.585 5.953 1.283 7.073 1.5 7.285a103.028 103.028 0 0110.5 2.128s-10.183 46.651-6.725 55.443z" fill="#000000"/><path class="bb" d="M1164.642 709.885v29.959a13.4 13.4 0 0013.4 13.4h40.4a13.4 13.4 0 0013.4-13.4v-29.959zm19.195 33.58a1.981 1.981 0 01-1.981 1.981h-1.486a1.981 1.981 0 01-1.981-1.981v-11.948a1.981 1.981 0 011.981-1.981h1.486a1.981 1.981 0 011.981 1.981zm0-18.258a1.981 1.981 0 01-1.981 1.981h-1.486a1.981 1.981 0 01-1.981-1.981v-11.948a1.981 1.981 0 011.981-1.981h1.486a1.981 1.981 0 011.981 1.981zm8.867 18.258a1.981 1.981 0 01-1.981 1.981h-1.486a1.981 1.981 0 01-1.981-1.981v-11.948a1.981 1.981 0 011.981-1.981h1.486a1.981 1.981 0 011.981 1.981zm0-18.258a1.981 1.981 0 01-1.981 1.981h-1.486a1.981 1.981 0 01-1.981-1.981v-11.948a1.981 1.981 0 011.981-1.981h1.486a1.981 1.981 0 011.981 1.981zm8.872 18.258a1.981 1.981 0 01-1.981 1.981h-1.486a1.981 1.981 0 01-1.981-1.981v-11.948a1.981 1.981 0 011.981-1.981h1.486a1.981 1.981 0 011.981 1.981zm0-18.258a1.981 1.981 0 01-1.981 1.981h-1.486a1.981 1.981 0 01-1.981-1.981v-11.948a1.981 1.981 0 011.981-1.981h1.486a1.981 1.981 0 011.981 1.981zm8.867 18.258a1.981 1.981 0 01-1.981 1.981h-1.486a1.981 1.981 0 01-1.981-1.981v-11.948a1.981 1.981 0 011.981-1.981h1.486a1.981 1.981 0 011.981 1.981zm0-18.258a1.981 1.981 0 01-1.981 1.981h-1.486a1.981 1.981 0 01-1.981-1.981v-11.948a1.981 1.981 0 011.981-1.981h1.486a1.981 1.981 0 011.981 1.981zm8.872 18.258a1.981 1.981 0 01-1.981 1.981h-1.486a1.981 1.981 0 01-1.981-1.981v-11.948a1.981 1.981 0 011.981-1.981h1.486a1.981 1.981 0 011.981 1.981zm0-18.258a1.981 1.981 0 01-1.981 1.981h-1.486a1.981 1.981 0 01-1.981-1.981v-11.948a1.981 1.981 0 011.981-1.981h1.486a1.981 1.981 0 011.981 1.981zm8.867 18.258a1.981 1.981 0 01-1.981 1.981h-1.486a1.981 1.981 0 01-1.981-1.981v-11.948a1.981 1.981 0 011.981-1.981h1.486a1.981 1.981 0 011.981 1.981zm0-18.258a1.981 1.981 0 01-1.981 1.981h-1.486a1.981 1.981 0 01-1.981-1.981v-11.948a1.981 1.981 0 011.981-1.981h1.486a1.981 1.981 0 011.981 1.981z" fill="#000000"/><path class="bb" d="M1234.511 709.887h-72.534a5.523 5.523 0 015.523-5.518h61.5a5.518 5.518 0 015.518 5.518z" fill="#000000"/><path class="dk" d="M1233.877 743.46q-1.055 2.625-2.338 5.157l-18.689-7.609q.148-3 .5-5.9a66.933 66.933 0 014.111-16.178 65.467 65.467 0 012.724-6l.55-.03 17.525 7.138c.144.144.287.282.426.431q-.138 3.467-.6 6.865a66.757 66.757 0 01-4.206 16.134z" fill="#000000"/><path class="dl" d="M1233.877 743.456l-20.512-8.357a66.914 66.914 0 014.112-16.178l20.626 8.421a66.748 66.748 0 01-4.226 16.114z" fill="#000000"/><path class="dm" d="M1221.399 739.359l-1.61-.124 1.719-21.746 1.61.129z" fill="#000000"/><path class="dm" d="M1223.014 735.015l-1.526-.619 4.027-15.594 1.521.624zM1221.968 739.874l1.451 1.729 9.615-14.395-1.451-1.734zM1228.926 728.025l-1.328-.54 1.724-6.682 1.328.545z" fill="#000000"/><path class="dk" d="M1233.877 743.46q-1.055 2.625-2.338 5.157l-18.689-7.609q.148-3 .5-5.9a66.933 66.933 0 014.111-16.178 65.467 65.467 0 012.724-6l.55-.03 17.525 7.138c.144.144.287.282.426.431q-.138 3.467-.6 6.865a66.757 66.757 0 01-4.206 16.134z" fill="#000000"/><path class="dl" d="M1233.877 743.456l-20.512-8.357a66.914 66.914 0 014.112-16.178l20.626 8.421a66.748 66.748 0 01-4.226 16.114z" fill="#000000"/><path class="dm" d="M1221.399 739.359l-1.61-.124 1.719-21.746 1.61.129z" fill="#000000"/><path class="dm" d="M1223.014 735.015l-1.526-.619 4.027-15.594 1.521.624zM1221.968 739.874l1.451 1.729 9.615-14.395-1.451-1.734zM1228.926 728.025l-1.328-.54 1.724-6.682 1.328.545z" fill="#000000"/><path class="dn" d="M1238.336 720.054l-17.62-7.177.58-2.249 17.62 7.178z" fill="#000000"/><path class="do" d="M1238.334 720.055l-7.628-3.111.574-2.244 7.633 3.106z" fill="#000000"/><path class="dn" d="M1231.009 750.758l-18.709-7.624.55-2.125 18.709 7.618z" fill="#000000"/><path class="do" d="M1231.009 750.756l-13.865-5.647.55-2.13 13.865 5.647z" fill="#000000"/><path d="M1228.75 731.63c-1.744 6.766-5.583 10.952-8.723 9.986-5.617-1.734-5.756-8.223-4.007-14.989s7.257-10.764 10.328-9.511 4.136 7.753 2.402 14.514z" fill="#f9b2b2" opacity=".29"/><path class="do" d="M1238.101 727.326q.451-3.373.6-6.865c-.139-.149-.282-.287-.426-.431l-4.245-1.729c.144.144.288.282.426.431q-.144 3.492-.594 6.865a66.969 66.969 0 01-4.225 16.133 65.827 65.827 0 01-2.343 5.157l4.245 1.729q1.278-2.531 2.338-5.157a66.751 66.751 0 004.224-16.133z" fill="#000000"/><path class="dq" d="M1210.302 742.37a.253.253 0 01-.228-.282.25.25 0 11.228.282zM1194.457 734.94a.273.273 0 11.2-.058.272.272 0 01-.2.058zM1190.221 733.459a.3.3 0 11.327-.263.3.3 0 01-.327.263zM1188.601 735.648a.4.4 0 01-.352-.436.4.4 0 01.441-.352.391.391 0 01.351.436.4.4 0 01-.44.352zM1189.972 736.278a.243.243 0 01-.213-.263.238.238 0 01.263-.208.251.251 0 01-.05.5z" fill="#000000"/><path class="dr" d="M1203.858 745.942a2.685 2.685 0 011.441.228 5.93 5.93 0 00.991.689 8.612 8.612 0 003.517.916 5.281 5.281 0 004.067-1.793 3.467 3.467 0 012.566-1.154h3.923l.5-4.513-3.819-.867a3.354 3.354 0 01-1.709-1.4 7.187 7.187 0 00-6.147-3.051 8.817 8.817 0 00-1.61.248 6 6 0 00-1.09.461 2.661 2.661 0 01-1.456-.089 1.59 1.59 0 01-1.144-1.095 1.982 1.982 0 00-1.719-1.486l-19.319-2.135a2.006 2.006 0 00-2.219 1.778l-1.194 10.779a2.016 2.016 0 001.778 2.224l19.319 2.135a2.011 2.011 0 001.981-1.06 1.561 1.561 0 011.343-.815z" fill="#000000"/><path class="dr" d="M1203.858 745.942a2.685 2.685 0 011.441.228 5.93 5.93 0 00.991.689 8.612 8.612 0 003.517.916 5.281 5.281 0 004.067-1.793 3.467 3.467 0 012.566-1.154h3.923l.5-4.513-3.819-.867a3.354 3.354 0 01-1.709-1.4 7.187 7.187 0 00-6.147-3.051 8.817 8.817 0 00-1.61.248 6 6 0 00-1.09.461 2.661 2.661 0 01-1.456-.089 1.59 1.59 0 01-1.144-1.095 1.982 1.982 0 00-1.719-1.486l-19.319-2.135a2.006 2.006 0 00-2.219 1.778l-1.194 10.779a2.016 2.016 0 001.778 2.224l19.319 2.135a2.011 2.011 0 001.981-1.06 1.561 1.561 0 011.343-.815z" fill="#000000"/><path d="M1200.505 747.819l-19.318-2.135a2.016 2.016 0 01-1.778-2.224l1.194-10.779a2.016 2.016 0 012.219-1.783l19.319 2.14a2.006 2.006 0 011.724 1.486 1.59 1.59 0 001.145 1.095 2.71 2.71 0 001.456.089 6.135 6.135 0 011.09-.461 9.279 9.279 0 011.6-.248 7.158 7.158 0 016.033 2.9l-.847 7.643a3.769 3.769 0 00-.5.446 5.271 5.271 0 01-4.067 1.8 8.534 8.534 0 01-3.517-.916 5.9 5.9 0 01-.991-.688 2.674 2.674 0 00-1.441-.228 1.561 1.561 0 00-1.352.817 2.011 2.011 0 01-1.969 1.046z" fill="#35180e"/><path class="dq" d="M1213.388 738.373a.53.53 0 11.584-.5.525.525 0 01-.584.5zM1211.438 738.625a.228.228 0 01-.2-.253.233.233 0 11.46.05.227.227 0 01-.257.2zM1212.502 741.003a.302.302 0 01.064-.6.307.307 0 01.272.332.3.3 0 01-.337.267z" fill="#000000"/><path class="dt" d="M1185.421 746.207l1.634-14.78 14.362 1.588-1.635 14.78z" fill="#000000"/><path class="k" d="M1200.372 733.973l-1.396 12.624-1.26-.14 1.396-12.623zM1188.995 732.761l-1.394 12.624-1.028-.113 1.393-12.625z" fill="#000000"/><path class="du" d="M1202.51 746.759a1.561 1.561 0 011.353-.817 2.685 2.685 0 011.441.228 5.892 5.892 0 00.991.688 8.609 8.609 0 003.517.916 5.28 5.28 0 004.067-1.793 3.467 3.467 0 012.566-1.154h3.918l.267-2.407h-3.92a3.468 3.468 0 00-2.566 1.154 5.279 5.279 0 01-4.067 1.793 8.609 8.609 0 01-3.517-.917 5.688 5.688 0 01-.991-.688 2.642 2.642 0 00-1.442-.228 1.561 1.561 0 00-1.352.817 2.021 2.021 0 01-1.981 1.06l-19.318-2.135a2.011 2.011 0 01-1.778-2.224l-.268 2.407a2.016 2.016 0 001.778 2.224l19.319 2.135a2.011 2.011 0 001.983-1.059z" fill="#000000"/><path d="M1210.174 742.642a2.952 2.952 0 01-2.383-3.383 2.76 2.76 0 112.383 3.383z" opacity=".22" fill="#97f0ff"/><path class="dt" d="M1222.869 745.807l-2.61-.287.669-6.053 2.611.287a.307.307 0 01.272.337l-.6 5.449a.307.307 0 01-.337.267z" fill="#000000"/><path class="du" d="M1220.259 745.521l.342-3.116 2.918.322-.253 2.279a.842.842 0 01-.931.743z" fill="#000000"/><path fill="#4c0d0c" d="M1220.932 739.464l-.67 6.051-.758-.083.67-6.052z"/><path d="M1221.097 742.092a3.16 3.16 0 01-.451-.074l.243-2.209a3.549 3.549 0 01.456 0c1.174.129 2.065.743 1.981 1.367s-1.06 1.046-2.229.916z" fill="#ffaca1" opacity=".26"/><path class="be" d="M1172.132 709.885v29.959a13.374 13.374 0 0013.4 13.4h40.4a13.4 13.4 0 0013.4-13.4v-29.959zm10.323 33.58a1.981 1.981 0 01-1.981 1.981h-1.486a1.981 1.981 0 01-1.981-1.981v-11.948a1.981 1.981 0 011.981-1.981h1.486a1.981 1.981 0 011.981 1.981zm0-18.258a1.981 1.981 0 01-1.981 1.981h-1.486a1.981 1.981 0 01-1.981-1.981v-11.948a1.981 1.981 0 011.981-1.981h1.486a1.981 1.981 0 011.981 1.981zm8.872 18.258a1.981 1.981 0 01-1.981 1.981h-1.486a1.981 1.981 0 01-1.981-1.981v-11.948a1.981 1.981 0 011.981-1.981h1.486a1.981 1.981 0 011.981 1.981zm0-18.258a1.981 1.981 0 01-1.981 1.981h-1.486a1.981 1.981 0 01-1.981-1.981v-11.948a1.981 1.981 0 011.981-1.981h1.486a1.981 1.981 0 011.981 1.981zm8.867 18.258a1.981 1.981 0 01-1.981 1.981h-1.486a1.981 1.981 0 01-1.981-1.981v-11.948a1.981 1.981 0 011.981-1.981h1.486a1.981 1.981 0 011.981 1.981zm0-18.258a1.981 1.981 0 01-1.981 1.981h-1.486a1.981 1.981 0 01-1.981-1.981v-11.948a1.981 1.981 0 011.981-1.981h1.486a1.981 1.981 0 011.981 1.981zm8.872 18.258a1.981 1.981 0 01-1.981 1.981h-1.486a1.981 1.981 0 01-1.981-1.981v-11.948a1.981 1.981 0 011.981-1.981h1.486a1.981 1.981 0 011.981 1.981zm0-18.258a1.981 1.981 0 01-1.981 1.981h-1.486a1.981 1.981 0 01-1.981-1.981v-11.948a1.981 1.981 0 011.981-1.981h1.486a1.981 1.981 0 011.981 1.981zm8.866 18.258a1.981 1.981 0 01-1.981 1.981h-1.486a1.981 1.981 0 01-1.981-1.981v-11.948a1.981 1.981 0 011.981-1.981h1.486a1.981 1.981 0 011.981 1.981zm0-18.258a1.981 1.981 0 01-1.981 1.981h-1.486a1.981 1.981 0 01-1.981-1.981v-11.948a1.981 1.981 0 011.981-1.981h1.486a1.981 1.981 0 011.981 1.981zm8.872 18.258a1.981 1.981 0 01-1.981 1.981h-1.491a1.981 1.981 0 01-1.981-1.981v-11.948a1.981 1.981 0 011.981-1.981h1.486a1.981 1.981 0 011.981 1.981zm0-18.258a1.981 1.981 0 01-1.981 1.981h-1.491a1.981 1.981 0 01-1.981-1.981v-11.948a1.981 1.981 0 011.981-1.981h1.486a1.981 1.981 0 011.981 1.981zm8.867 18.258a1.981 1.981 0 01-1.981 1.981h-1.486a1.981 1.981 0 01-1.981-1.981v-11.948a1.981 1.981 0 011.981-1.981h1.486a1.981 1.981 0 011.981 1.981zm0-18.258a1.981 1.981 0 01-1.981 1.981h-1.486a1.981 1.981 0 01-1.981-1.981v-11.948a1.981 1.981 0 011.981-1.981h1.486a1.981 1.981 0 011.981 1.981z" fill="#000000"/><path class="dc" d="M1172.132 709.885h67.209v.887h-67.209z" fill="#000000"/><path class="bb" d="M1242.001 709.887h-72.529a5.518 5.518 0 015.518-5.518h61.492a5.518 5.518 0 015.518 5.518z" fill="#000000"/><path class="be" d="M1171.043 705.843h69.175a3.578 3.578 0 011.184.2 3.466 3.466 0 00-2.972-1.679h-65.594a3.467 3.467 0 00-2.972 1.679 3.6 3.6 0 011.179-.2z" fill="#000000"/><path class="cm" d="M1185.168 709.276l-.555-.391a3.358 3.358 0 01-.817-4.676l18.442-25.263 2.972 2.635-15.356 26.863a3.358 3.358 0 01-4.686.832z" fill="#000000"/><path class="dd" d="M1187.581 707.864a1.486 1.486 0 11.256-1.122 1.486 1.486 0 01-.256 1.122z" fill="#000000"/><path class="cm" d="M1221.746 708.682l-.579.357a3.354 3.354 0 01-4.622-1.08l-13.979-26.56 2.1-3.18 18.165 25.842a3.364 3.364 0 01-1.085 4.621z" fill="#000000"/><path class="dd" d="M1221.394 705.912a1.486 1.486 0 11-.931-.685 1.486 1.486 0 01.931.685z" fill="#000000"/><path class="ax" d="M1208.579 676.885c6.786-18.927 2.734-42.6 2.734-42.6.1-7.584.238-30.157-1.486-36.349a32.794 32.794 0 00-6.231-12.077s-3.73 10.5-3.73 15.356 2.234 20.611 2.234 24.941c0 10.556.961 45.834.5 47.221-.857 2.516-4.572 5.944-5.345 6.568s-2.09 1.065-1.07 2.353.312.926 1.545 1.957 1.065.916 1.833 2.734 7.846-1.184 8.386-2.2 1.65-4.151.946-6.1a6.656 6.656 0 01-.316-1.804z" fill="#000000"/><path d="M1214.218 636.036c1-37.651-5.618-45.174-10.288-49.529-4.139-3.849-13.061-4.2-13.061-4.2-1.853 2.905-8.2 10.119-16.072 8.819-4.249-.7-5.11-8.342-5.208-9.364l.03-.113h-.039l-.091.017c-1.229.184-11.112 1.789-14.041 6.833-4.326 7.442-9.035 29.779-13.663 29.449-2.124-.152-23.5-8.187-23.5-8.187s-3.561 3.338-2.881 7.43a225.491 225.491 0 0019.483 11.579c1.229.624 2.441 1.2 3.583 1.7 3.217 1.413 5.928 2.232 7.408 1.88a4.878 4.878 0 001.344-.563c1.937-1.118 4.2-3.576 6.363-6.375 1.44-1.863 2.839-3.874 4.075-5.749.024-.039.049-.079.076-.118.528 7.1 1.062 14.828.511 20.891-.42 4.606-.722 14.584.066 17.163 1.649 5.375 13.763 6.8 25.069 6.233a73.475 73.475 0 0011.832-1.2c3.977-.912 5.793-2.509 7.1-5.653 1.248-3.006-4.52-17.114-5.068-23.288a36.041 36.041 0 011.77-14.629c3.991 9.217 2.768 15.55 3.3 16.978-.1 8.667 0 35 0 35 .867-.192 2.808 1.459 3.569 1 .679-.447 3.232 2.687 3.667 2 5.666-14.337 4.666-38.004 4.666-38.004z" fill="#ebba56"/><path class="dz" d="M1202.306 656.955c-1.308 3.156-3.124 4.753-7.1 5.653-5.312-1.02-8.816-10.8-10.62-15.609-2.079-5.545 8.752-34.053 11.741-33.792 2.212.192 2.608 3.965 2.681 5.82a35.356 35.356 0 00-1.77 14.629c.543 6.186 6.311 20.293 5.068 23.299zM1157.652 619.66a92.03 92.03 0 01-4.075 5.749 34.09 34.09 0 01-6.363 6.375 4.873 4.873 0 01-1.345.563c-1.474.351-4.19-.467-7.407-1.88a35.372 35.372 0 005.653-.084c3.24-.275 4.178-3.782 9.3-9.04 3.05-3.143 3.982-2.658 4.237-1.683z" fill="#000000"/><path class="ba" d="M1187.264 567.422s-4.756 8.575-12.614 10.2a25.4 25.4 0 00.136-5.99c-.064-.649-.125-1.027-.125-1.027l12.254-3.731z" fill="#000000"/><path class="ax" d="M1171.374 571.461s15.1 3.03 16.841-6.39 4.864-15.388-4.7-17.723-12.109.917-13.457 3.932-2.569 19.151 1.316 20.181z" fill="#000000"/><path class="dj" d="M1191.132 547.962c-2.556-2.873-6.316-7.128-6.316-7.128s-7.5-2.512-14.951 4.827c-3.21 3.161-2.726 9.377-1.005 12.982 0 0 2.64-7.727 7.442-9.413a10.447 10.447 0 003.016-1.745 20.756 20.756 0 004.129 6.145c4.965 5.427 4 16.4 4 16.4s8.148-17.045 3.685-22.068z" fill="#000000"/><path class="k" d="M1176.074 566.82s-.406 1.118-3.247.612c0 0-2.387-.428-2.165-1.684a7.789 7.789 0 015.412 1.072z" fill="#000000"/></g><g><path class="ad" d="M637.151 613.616a21.307 21.307 0 00-3.721-2.083c-.792-.122-5.411-.627-5.124.292.255.8.276.967 2.424 1.116s2.423 1.5 2.423 1.5z" fill="#000000"/><path class="ax" d="M679.421 617.447s-1.132 11.735-3.827 11.735-23.375-11.555-27.718-12.687c-3.667-.962-9.227-.2-12.118.951a5.883 5.883 0 01-6.585-2.275c-.106-.191-1.328-4.05-1.328-4.215 0-1.525 11.438-.138 15.211-.138s26.208 7.6 26.208 7.6l2.02-6.378z" fill="#000000"/><path d="M666.868 615.406c.824-12.389 4.417-32.8 4.417-32.8s5.761 14.414 7.356 19.554c1.27 4.093 1.467 11.108.531 17.008-3.258-.296-9.009-3.905-12.304-3.762z" fill="#14667d"/><path class="ad" d="M721.245 801.926c1.749-.994 3.056-7.824 3.056-7.824-.186-5.7-.643-13.755-1.233-22.126 2.859-.17 5.73-.255 8.6-.287-.585 8.722-1.111 15.8-.973 16.886.356 2.891 1.68 1.648 2.466 3.662.8 2.344-.808 3.673-2.913 4.746s-2.238 5.846-3.444 6.2c-5.273 1.552-7.749 1.377-7.749.463s.435-.731 2.19-1.72z" fill="#000000"/><path class="y" d="M723.069 771.976c2.859-.17 5.729-.255 8.6-.287-.106 1.594-.213 3.088-.308 4.528-2.386-.468-5.788-1.063-8.095-1.3-.064-.969-.128-1.948-.197-2.941z" fill="#000000"/><path class="ad" d="M676.015 799.746a55.758 55.758 0 005.315-1.919 8.244 8.244 0 004.964-6.633c.579-5.049 1.4-14.265 1.855-19.793a62.311 62.311 0 0111.045.176c-3.189 10.035-6.309 19.846-6.144 22.695.3 5.187 2.939 8.456-.734 9.174-3.136.611-8.77-.792-12.878-.792s-6.048-2.1-3.423-2.908z" fill="#000000"/><path class="eb" d="M693.247 803.834c3.035-.59.973-5.315.143-6.984-2.929 1.594-12.836 3.152-17.38 2.9-4.348 1.711-8.552 1.435-6.378 3.625s20.484 1.049 23.615.459z" fill="#000000"/><path class="y" d="M688.16 771.412a62.3 62.3 0 0111.045.175l-1.249 3.928c-2.588-.223-6.989-.59-10.1-.734.123-1.243.219-2.364.304-3.369z" fill="#000000"/><path d="M709.072 725.246c-.341-14.995 13.794-84.461 13.794-84.461l-29.355-2.009s-7.295 76.54-7.954 82.381.321 51.37-4.1 65.9c3.72-.3 13.383.532 17.051.893 3.034-9.53 10.904-47.709 10.564-62.704z" fill="#2b389e"/><path d="M731.225 705.689c-.106-1.876 4.091-34.287-1.7-57.375-2.811-11.246-15.364-20.768-15.364-20.768l-20.659 1.823 3.465 17.141 4.884 16.174c.893 4.64 12.832 69.387 14.894 73.58 1.164 2.36 3.895 33.744 3.948 50.911 2.87 0 11.162.622 14.021.776 1.923-14.34 4.006-35.442-3.489-82.262z" fill="#6877dd"/><path d="M671.284 582.602s5.99-6.054 24.832-11.161c.84-.234 6.638 17.768 6.638 17.768a85.835 85.835 0 003.864 22.69c2.854 8.5 11.278 16.285 13.649 19.043 0 0-12.862 11.661-29.068 12.363 0 0-7.165-26.192-11.161-30.54s-8.839-7.616-8.472-14.521a144.84 144.84 0 00-.282-15.642z" fill="#148789"/><path d="M691.201 643.278c-1.419-6.755-6.166-26.07-10.63-31.316-5.592-6.011-8.435-7.181-8.286-14.978a107.182 107.182 0 00-1.015-14.382c-.042 9.96-.064 10.024-.415 16.413-.2 8.616 7.441 11.13 10.37 17.444 2.641 5.235 7.903 20.967 9.976 26.819z" fill="#72b8b8"/><path class="eb" d="M731.036 789.909a34.3 34.3 0 00-3.662 8.121c-.872 3.1-5.979 3.8-6.123 3.885-1.754.989-5.958 1.377-5.958 2.291s6.25 2 11.523.457c1.206-.356 1.807-6.612 3.912-7.691s3.774-1.876 2.971-4.22a5.711 5.711 0 00-2.663-2.843z" fill="#000000"/><path class="ax" d="M672.103 564.999c-.223.457 4.544 9.9 4.109 13.112 0 0 1.217 15.414 3.774 14.882 2.222-.473 5.974-14.8 5.735-16.907-.33-2.828-5.384-15.8-5.384-15.8z" fill="#000000"/><path d="M616.02 638.652l.106-.324 4.284-13.372s6.841-4.582 11.911-5.714 12.809 3.157 12.809 3.157 3.779 15.552 2.583 16.742-2.339 8.8-2.583 9.035-28.7-2.354-28.7-2.354z" opacity=".43" fill="#b5beff"/><path class="eh" d="M637.864 631.897c-1.063 2.461-5.251 3.625-8.594 2.4s-5.6-4.89-4.683-7.409c1.329-3.614 3.189-2.923 5.506-1.855.441.2.9.425 1.371.627.276.117.531.234.845.34s.606.2.914.292.749.2 1.121.3c2.792.691 5.295 1.223 3.52 5.305z" fill="#000000"/><path class="ei" d="M629.923 632.934c-3.338-1.223-5.6-4.879-4.688-7.393a7.655 7.655 0 00-.638 1.35c-.92 2.519 1.344 6.181 4.682 7.409s7.526.058 8.594-2.4c.112-.266.213-.531.292-.755-1.444 2.034-5.191 2.905-8.242 1.789z" fill="#000000"/><path class="ej" d="M627.366 630.223a3.685 3.685 0 01.186-3.683 4.3 4.3 0 012.551-1.5c.441.2.9.425 1.371.627a14.48 14.48 0 00-2.28.324c-2.492.532-1.828 4.232-1.828 4.232zM633.416 631.116s2.3-1.494 1.759-2.657a8.129 8.129 0 00-1.94-2.169c.372.106.75.2 1.122.3a2.615 2.615 0 011.435 2.179c-.165 1.704-2.376 2.347-2.376 2.347z" fill="#000000"/><path class="ek" d="M634.329 629.309c-.319.866-1.722 1.143-3.141.622s-2.312-1.642-2-2.5 1.727-1.143 3.147-.622 2.308 1.634 1.994 2.5z" fill="#000000"/><path class="el" d="M631.932 621.746h.027s-.027-.005-.027 0z" fill="#000000"/><path class="el" d="M636.211 625.508a.479.479 0 00-.654-.239c.463.165.053.632-.473.877a5.921 5.921 0 01-2.551-.9l-.112-.058c.909-1.132 1.435-4.252-.452-4.358v.909a.393.393 0 01.208 0c.739.181.616 2.429.064 3.354-1.026-.4-3.04-.531-3.12-.9-.1-.532.531-.372.531-.372l.494.34s-.245-.957-.845-.967a.877.877 0 00-.941 1.143 10.954 10.954 0 002.493 1.105 3.766 3.766 0 00-2.03.654c-.8.606-.16 2.126-.16 2.126s-.159-1.313.675-1.7a11.977 11.977 0 012.349-.638l-.957 2.8a2.313 2.313 0 001.191-1.377 3.631 3.631 0 00.287-1.329l.531.255a6.15 6.15 0 011.063 1c.494.616-.845 1.307-.845 1.307a1.593 1.593 0 00.989-.372c.85-.749.377-1.206 0-1.594.372.085.707.229 1.244.324.931.168 1.228-.943 1.021-1.39z" fill="#000000"/><path class="eh" d="M644.64 627.816c1.727 2.062.882 6.319-1.706 8.759s-6.909 2.817-8.722.861c-2.657-2.806-1.18-4.167.813-5.751.383-.3.781-.616 1.169-.946.234-.191.463-.393.686-.6s.457-.452.675-.686.532-.579.766-.872c1.865-2.195 3.476-4.183 6.319-.765z" fill="#000000"/><path class="ei" d="M641.997 635.367c-2.589 2.434-6.867 2.817-8.711.872a7.287 7.287 0 00.925 1.175c1.839 1.956 6.128 1.594 8.722-.861s3.433-6.7 1.706-8.759c-.186-.218-.367-.42-.531-.6 1.159 2.215.256 5.936-2.111 8.173z" fill="#000000"/><path class="ej" d="M638.432 636.432a3.667 3.667 0 01-3.189-1.818 4.278 4.278 0 01-.2-2.95c.383-.3.781-.616 1.169-.946a16.066 16.066 0 00-.728 2.179c-.661 2.482 2.948 3.535 2.948 3.535zM641.945 631.429s-.3-2.721-1.595-2.758a7.972 7.972 0 00-2.806.76c.26-.287.531-.579.765-.872a2.613 2.613 0 012.594-.3c1.468.911 1.042 3.17 1.042 3.17z" fill="#000000"/><path class="ek" d="M640.74 629.803c.633.67.25 2.052-.85 3.088s-2.509 1.329-3.136.659-.25-2.052.855-3.088 2.501-1.329 3.131-.659z" fill="#000000"/><path class="bb" d="M608.876 800.315h-5.092V713.76h5.092z" fill="#000000"/><g transform="translate(547 657.999)"><path class="bc" d="M49.763 93.068l1.498-1.703 11.742 10.333-1.498 1.703zM30.774 96.956l1.559-1.644 10.956 10.39-1.558 1.644z" fill="#000000"/><path class="bd" d="M98.018 164.787a7.587 7.587 0 11-7.587-7.587 7.587 7.587 0 017.587 7.587zM41.754 164.787a7.582 7.582 0 11-2.221-5.367 7.587 7.587 0 012.221 5.367z" fill="#000000"/><path class="bd" d="M35.993 151.381a7.587 7.587 0 11-7.589-7.592 7.587 7.587 0 017.589 7.592zM84.633 151.381a7.587 7.587 0 11-7.589-7.593 7.588 7.588 0 017.589 7.593z" fill="#000000"/><path class="be" d="M86.742 145.737a1.6 1.6 0 01-.417-.059 1.51 1.51 0 01-1.039-1.869l13.922-48.833a1.515 1.515 0 011.863-1.039c.8.23 1.2 2.463.98 3.266l-13.874 47.435a1.521 1.521 0 01-1.435 1.099z" fill="#000000"/><circle class="bf" cx="5.381" cy="5.381" r="5.381" transform="rotate(-80.61 127.288 36.142)" fill="#000000"/><path class="be" d="M78.031 153.361h-1.7a2.04 2.04 0 01-1.911-1.756l-1.5-7.705h8.246l-1.2 7.614a2.051 2.051 0 01-1.928 1.847z" fill="#000000"/><path class="bg" d="M78.55 151.091a1.51 1.51 0 11-1.51-1.5 1.509 1.509 0 011.51 1.5z" fill="#000000"/><circle class="bf" cx="5.381" cy="5.381" r="5.381" transform="rotate(-80.68 102.832 64.818)" fill="#000000"/><path class="be" d="M29.393 153.361h-1.7a2.04 2.04 0 01-1.912-1.756l-1.5-7.705h8.246l-1.2 7.614a2.05 2.05 0 01-1.927 1.847z" fill="#000000"/><path class="bg" d="M29.916 151.091a1.51 1.51 0 11-1.51-1.5 1.51 1.51 0 011.51 1.5z" fill="#000000"/><path class="bf" d="M39.548 164.788a5.354 5.354 0 11-5.354-5.354 5.354 5.354 0 015.354 5.354z" fill="#000000"/><path class="bh" d="M0 42.978l3.935 43.007c.461 5.028 4.417 9.349 9.847 10.752l.594.075.1.086a14.892 14.892 0 003 .3h84.6l20.5-68.628-1.692-1.21L1.019 41.855zm30.472 15.121l-17.8.69-1.188-16.556 18.992-2.292zm23.994.69l17.959-.7-2.2 17.97-16.551.246zm19.812-.771l19.33-.755-3.995 18.51-17.536.263zm1.071-23.5l-2.677 21.953-18.082.707.91-20.235zm23.806-2.875L93.983 55.62l-19.479.76 2.677-22.082zm13.622 23.244l-16.931.659 5.21-24.133 19.3-2.334zm-6.19 20.636l-15.158.23 4-18.553 16.824-.658zM87.155 95.581l3.919-18.205 15.041-.225-5.456 18.419zm-17.5 0l2.185-17.905 17.386-.262-3.914 18.168zm-16.856 0l.792-17.632 16.422-.246-2.185 17.878zM32.275 78.27l19.5-.294-.792 17.605H32.275zm0-18.607l20.347-.8-.782 17.477-19.576.289zm0-19.935l21.338-2.581-.9 20.085-20.433.8zM14.07 78.537l16.379-.241V95.58h-13a12.135 12.135 0 01-1.66-.113l-.487-.059zm-1.312-18.114l17.67-.685v16.926l-16.5.246zM5.06 78.671l7.2-.107.664 9.247c.209 2.843.359 4.819.5 6.254l.091.937-.948-.391a10.736 10.736 0 01-6.848-8.755zM3.454 60.787l7.528-.294 1.183 16.443-7.229.107zM1.847 43.406l7.823-.948 1.184 16.406-7.561.3z" fill="#000000"/><path class="be" d="M101.004 96.913l1.619-1.591 11.328 11.522-1.619 1.591zM106.154 75.054l1.562-1.64 11.505 10.956-1.562 1.64zM112.367 52.095l1.56-1.643 11.712 11.119-1.56 1.642zM134.086 32.473l-15.919-3.722.76-1.387 16.567 3.314z" fill="#000000"/><path class="bc" d="M85.527 96.944l1.588-1.615 11.713 11.516-1.588 1.615z" fill="#000000"/><path class="bi" d="M24.374 54.031C7.968 69.805 19.02 97.938 42.044 97.938a25.5 25.5 0 0025.5-25.509c.014-22.573-27.122-33.852-43.17-18.398z" fill="#000000"/><path class="bj" d="M27.217 55.615c.8 1.376 6.377-1.842 5.579-3.213-.332-.583-6.371 1.832-5.579 3.213z" fill="#000000"/><path class="bk" d="M28.781 40.398c-1.681 4.856-3.159 12.947 2.035 13.14v.241c-5.756.6-5.579-8.38-4.493-14.045z" fill="#000000"/><path class="bl" d="M25.627 57.184c-3.561 26.194 4.819 33.369 19.533 36.823-20.579 1.569-27.924-19.02-19.533-36.823zM38.188 50.277c23.469 12.165 24.518 23.147 18.875 37.165 13.112-15.929.529-33.77-18.875-37.165zM31.051 56.248s7.095 29.985 21.595 34.483z" fill="#000000"/><path class="bm" d="M80.81 59.342H62.235v43.157h19.924z" fill="#000000"/><path d="M74.733 68.305a1.808 1.808 0 01.15-1.017 3.131 3.131 0 00.2.835c.23.605.385.664.4.675a1.276 1.276 0 01-.246.412c-.307.343-.446-.46-.504-.905z" fill="#ff4608"/><path class="bn" d="M87.541 98.912L82.16 102.5l-1.349-43.157 1.349-8.883 3.5 10.045z" fill="#000000"/><path class="bo" d="M64.794 50.459h17.365l-1.349 8.883H62.235z" fill="#000000"/><path class="bn" d="M82.829 46.962l-.669 3.5H64.795v-3.5z" fill="#000000"/><path class="bc" d="M67.762 96.914l1.619-1.591 11.328 11.522-1.619 1.591z" fill="#000000"/><path class="bp" d="M122.388 61.735s-29.053-4.46-30.044-4.46 1.9 4.353-2.522 6.768-30.66 20.722-31.9 29.385 6.961 13.124 6.961 13.124l43.586-.493z" fill="#000000"/><path class="bq" d="M85.158 68.172l28.85 7.55-13.493 22.044-36.277-11.764z" fill="#000000"/><path class="br" d="M82.683 96.154s-5.285-3.3-6.688-.578.664 6.6.664 6.6-1.788-5.537.412-6.522 5.612.5 5.612.5zM104.224 101.599s-4.155-4.46-8.032-3.261-2.651 5.242-2.651 5.242.273-5.119 3.823-4.54a22.259 22.259 0 016.86 2.559zM63.612 93.193s8.171 3.55 7.346 7.678-8.091 1.735-8.091 1.735 9.1 1 6.961-3.555a11.624 11.624 0 00-6.216-5.858z" fill="#000000"/><path class="bs" d="M57.09 86.714c-1.489-.685-2.142-1.88-.974-3.106 1.478-1.606 4.626-1.29 5.948.718a5.109 5.109 0 01-.1 5.178 5.313 5.313 0 01-1.842 1.885 5.1 5.1 0 01-2.4.792l.193.878a7.1 7.1 0 004.594-3.282s1.885-3.213.2-5.89c-1.767-2.875-6.34-3.068-7.994-.284-1.023 1.7.053 3.5 1.826 4.358z" fill="#000000"/><path class="bt" d="M26.113 92.085c0-4.069 4.284-7.368 9.526-7.368 3.828 0 7.127 1.746 8.642 4.283 7.86.343 13.922 2.544 13.922 5.215 0 1.248-1.231 2.142-2.206 2.677a19.445 19.445 0 01-5.89 1.906 65.084 65.084 0 01-7.55.943 49.564 49.564 0 01-7.352.085 13.5 13.5 0 01-5.569-1.606 6.816 6.816 0 01-3.132-3.561 7.494 7.494 0 01-.391-2.575z" fill="#000000"/><path class="bu" d="M26.531 92.787a6.785 6.785 0 003.133 3.555 13.418 13.418 0 005.569 1.606 49.579 49.579 0 007.352-.085 64.989 64.989 0 007.55-.943 19.438 19.438 0 005.89-1.906 4.926 4.926 0 001.965-1.73 1.968 1.968 0 01.241.916c0 1.247-1.232 2.142-2.206 2.677a19.438 19.438 0 01-5.89 1.906 65 65 0 01-7.55.942 49.562 49.562 0 01-7.352.086 13.5 13.5 0 01-5.569-1.606 6.815 6.815 0 01-3.132-3.561 7.494 7.494 0 01-.418-2.549 5.369 5.369 0 01.064-.83 6.856 6.856 0 00.353 1.522z" fill="#000000"/><path class="bv" d="M54.027 92.518s-10.827-.894-11.865-1.264-.776-2.758-4.819-3.582-6.5.535-6.961 2.677 2.377 3.871 3.421 2.436 1.35-3.079 3.7-2.779a7.587 7.587 0 014.128 2.324z" fill="#000000"/><path class="bw" d="M53.118 92.052l1.146.589-.915.814 1.253.407-1.215.841h-.037l1.36.776-1.071.921 1.355.615-.182.884a5 5 0 004.433-3.389 4.387 4.387 0 00.043-1.071c-.359-3.63-6.222-3.5-6.222-3.5l.9.573-.589.187.718.589z" fill="#000000"/><path class="bx" d="M53.614 96.406l1.355.615-.182.884a5 5 0 004.434-3.39 4.381 4.381 0 00.043-1.071 6.742 6.742 0 01-1.381 2.088c-1.349 1.355-2.142 1.333-2.142 1.333v-.653l-1.108.037.943-1.012-2.179-.578h-.037l1.36.776z" fill="#000000"/><path class="by" d="M58.432 92.587a3.567 3.567 0 00-2.27-1.5c-1.606-.348-1.837-.107-1.837-.107l.825.535-.5.455.626.434-.718.5s2.698-.782 3.874-.317z" fill="#000000"/><path class="bz" d="M25.096 96.7c0 4.246 3.245 10.018 7.239 10.018s7.239-5.772 7.239-10.018-3.213-4.375-7.239-4.375-7.239.129-7.239 4.375z" fill="#000000"/><path class="ca" d="M37.551 95.64c.171-1.649.059-3.347-.99-4.433a3.683 3.683 0 00-.338-.305c-1.445-1.151-6.57-.814-7.175-.38a4.841 4.841 0 00-1.692 3.678c0 .535.8 13.022 4.979 12.519 4.006-.488 4.852-7.529 5.216-11.079z" fill="#000000"/><path class="bx" d="M31.088 84.09a5.758 5.758 0 011.606 1.515 2.736 2.736 0 01.375 2.6 11.328 11.328 0 00-.161 4.926l.193-.027c-.444-4.669 2.629-5.735-.128-9.156a7.018 7.018 0 00-.958-1z" fill="#000000"/><path class="cb" d="M28.154 95.12c0 4.915 1.874 11.6 4.182 11.6s4.187-6.682 4.187-11.6-1.874-5.071-4.187-5.071-4.182.156-4.182 5.071z" fill="#000000"/><path class="cc" d="M29.085 95.453c0 2.6 1.124 4.7 2.516 4.7s2.522-2.1 2.522-4.7-1.13-4.7-2.522-4.7-2.516 2.108-2.516 4.7z" fill="#000000"/><path class="cd" d="M77.672 88.591l-.225 2.848-.1 1.269a34 34 0 01-.536 3.984c-1.146 5.735-3.652 9.6-6.506 9.6H40.582c-1.7 0-3.165-2.677-3.534-6.511l-2-20.379a17.996 17.996 0 01-.08-1.29c-.139-4.717 1.488-8.894 3.619-8.894h32.041c4.458.003 7.831 9.273 7.044 19.373z" fill="#000000"/><path class="ce" d="M61.116 98.992H51.082v-8.594h2.222l1.28 5.7.776-5.7h5.756z" fill="#000000"/><path class="cf" d="M47.012 100.636h25.45v3.496h-25.45z" fill="#000000"/><path class="cg" d="M40.983 75.4h6.923v6.741h-6.923z" fill="#000000"/><path class="ch" d="M68.875 83.555c-5.74-5.8-18.708-4.889-26.772 3.416l-.075.621c2.04-.209 22.269-2.228 26.772-3.416z" fill="#000000"/><path class="ci" d="M77.672 88.592l-.225 2.848c-10.88-4.723-14.088-8.84-30.686-12.674a33.165 33.165 0 00-11.78-.653c-.139-4.718 1.489-8.894 3.62-8.894h32.041c4.444.003 7.817 9.273 7.03 19.373z" fill="#000000"/><path class="cj" d="M76.815 96.694c-1.141 5.735-3.657 9.6-6.506 9.6H40.581c-1.692 0-3.165-2.677-3.534-6.511l-2-20.379c-.535-5.22 1.215-10.173 3.539-10.173h3.609c5.396 13.29 16.324 31.661 34.62 27.463z" fill="#000000"/><path class="ck" d="M10.794 48.284L0 42.978l1.007-1.119 11.084 4.658zM12.219 65.58l-8.24-8.208.107 2.447 8.353 8.487zM13.841 85.301l-9.012-9.226.123 2.7 9.124 8.985z" fill="#000000"/><path class="be" d="M117.6 83.903l-14.018.236 3.748-19.426 15.587-.674zM83.481 62.726l-16.909.733.862-21.332 18.586-2.5zm5.627-23.512l20.652-2.774-4.921 25.359-18.3.792zm-5.96 26.547l-2.061 18.741-15.378.252.739-18.275zM63.54 63.587l-19.249.835V45.237l20.1-2.677zm-22.269.969l-16.636.722c-.4-6.222-.787-12.219-1.114-17.252l17.75-2.383zm-19.651.851l-6.361.279-1.349-16.369 6.613-.884zm.2 3.02l1.1 17.049-6.029.1-1.387-16.877zm3.009-.134l16.444-.713v17.579l-15.33.257c-.355-5.384-.745-11.295-1.115-17.121zm19.464-.846l19.126-.83-.733 18.2-18.393.305zm18.269 20.4l-.739 18.344h-17.53V88.146zm3.025-.053l15.164-.252-2.051 18.65H64.822zm18.205-.3l16.111-.268-3.684 18.966H81.74zm.332-3.031l2.072-18.826 18.05-.787-3.748 19.341zm39.623-23.485l-15.812.686 4.974-25.648 18.205-2.441zM17.729 95.937l-.605-7.341 5.975-.1.61 9.472c.22 3.293.369 5.6.535 7.2a11.244 11.244 0 01-6.495-9.237zm9.552 10.141c-.177-2.554-.621-9.269-1.162-17.627l15.132-.252v17.991h-12.4a11.013 11.013 0 01-1.553-.113zm84.311.113H99.277l3.689-19.019 13.793-.23zm21.354-75.916L12.063 46.52l-1.3 1.606 3.952 48.046a14.291 14.291 0 0010.281 12.487.927.927 0 00.659.187h.075a13.711 13.711 0 003.127.353h85.051l20.727-77.045z" fill="#000000"/><path class="cl" d="M0 42.979l10.784 5.157 3.293 39.623-10.634-7.85z" fill="#000000"/><path class="be" d="M35.158 166.769h-1.7a2.04 2.04 0 01-1.911-1.756l-1.5-7.7h8.246l-1.2 7.63a2.051 2.051 0 01-1.935 1.826z" fill="#000000"/><path class="be" d="M99.551 158.823H28.674a8.187 8.187 0 01-5.815-2.442l-7.095-7.25a3.78 3.78 0 012.677-6.425h68.28a1.515 1.515 0 010 3.025H18.468a.755.755 0 00-.535 1.28l7.1 7.25a5.142 5.142 0 003.652 1.531h70.877a1.515 1.515 0 010 3.025z" fill="#000000"/><path class="be" d="M99.551 158.823a1.472 1.472 0 01-.4-.053 1.511 1.511 0 01-1.071-1.853l14.993-55.28a1.494 1.494 0 011.853-1.071 1.394 1.394 0 01.825 1.853l-14.742 55.28a1.51 1.51 0 01-1.457 1.125z" fill="#000000"/><path class="bg" d="M35.671 164.499a1.51 1.51 0 11-1.5-1.5 1.51 1.51 0 011.5 1.5z" fill="#000000"/><path class="bf" d="M95.835 164.787a5.387 5.387 0 11-5.381-5.354 5.387 5.387 0 015.381 5.354z" fill="#000000"/><path class="be" d="M91.445 166.769h-1.7a2.034 2.034 0 01-1.911-1.756l-1.5-7.7h8.251l-1.2 7.614a2.051 2.051 0 01-1.94 1.842z" fill="#000000"/><path class="bg" d="M91.958 164.499a1.51 1.51 0 11-1.505-1.5 1.51 1.51 0 011.505 1.5z" fill="#000000"/><path class="be" d="M144.346 1.032a1.285 1.285 0 00-1.548-.337l-10.811 5.028-13.06 22.323c.536.187 1.119.8 1.874 1.071l12.931-22.109 10.173-4.744a.83.83 0 00.439-1.231zM133.558 32.73a1.367 1.367 0 01-.482-.091 1.3 1.3 0 01-.535-1.633l13.713-23.024 10.811-5.033a1.29 1.29 0 011.547.337.83.83 0 01-.417 1.253l-10.173 4.744-13.386 22.874a1.3 1.3 0 01-1.078.573z" fill="#000000"/><path class="cm" d="M158.734 5.465a1.527 1.527 0 01-.99.182l-16.208-2.645a1.511 1.511 0 11.487-2.982l16.208 2.64a1.51 1.51 0 01.5 2.806z" fill="#000000"/></g><path class="el" d="M638.188 626.412a.489.489 0 00-.531.478c.356-.335.59.239.574.818 0 .351-1.393 1.536-1.951 1.876l-.106.069c-.6-1.318-3.152-3.189-4.1-1.547l.808.415a.4.4 0 01.1-.181c.494-.579 2.45.531 3.024 1.451-.818.734-1.812 2.487-2.2 2.381-.5-.138-.085-.664-.085-.664l.531-.282s-.967-.218-1.244.319a.882.882 0 00.6 1.355 12.2 12.2 0 002.126-1.738 3.8 3.8 0 00-.33 2.126c.186.989 1.818 1.063 1.818 1.063s-1.249-.446-1.217-1.366a11.881 11.881 0 01.484-2.387l2.068 2.126a2.318 2.318 0 00-.7-1.685 3.729 3.729 0 00-1.063-.851l.473-.372a6.4 6.4 0 011.377-.531c.776-.165.786 1.339.786 1.339a1.592 1.592 0 00.112-1.063c-.287-1.095-.909-.872-1.414-.691.25-.3.532-.531.851-.967.559-.709-.302-1.474-.791-1.491z" fill="#000000"/><path d="M618.48 640.04s1.674-4.863 3.683-5.474 5.889-1.137 7.877.856.818 8.026-4.252 8.329-7.952-1.26-7.308-3.711z" fill="#ed0009"/><path class="eo" d="M616.02 638.652l.106-.324 2.216-6.909a17.22 17.22 0 019.078-10.38 25.151 25.151 0 014.9-1.775c5.065-1.138 12.809 3.157 12.809 3.157s3.779 15.552 2.583 16.742-2.339 8.8-2.583 9.036-28.7-2.354-28.7-2.354z" fill="#000000"/><path class="ep" d="M637.896 624.18a5.974 5.974 0 016.282 2.387c2.658 3.487 0 9.418 0 9.418s.564-5.209-2.269-7.319a5.512 5.512 0 00-5.634-.648 2.633 2.633 0 011.621-3.838zM631.374 623.776a4.342 4.342 0 00-3.38-.6c-1.935.415-5.14 1.361-6.256 3.237-1.642 2.758-2.344 11.257-2.344 11.257s3.954-6.575 7.558-7.5c3.152-.824 7.592-4.183 4.422-6.394z" fill="#000000"/><path class="ax" d="M714.693 589.256c-2.254 3.63-6.5 6.862-7.563 11.346 1.913 1.763 10.221 11.423 10.481 13.724-.207 3.791-18.895 36.375-19.1 36.557-.048.042-4.571.413-6.006 3.414s-3.79 11.668-3.189 11.668a59.3 59.3 0 002.992-6.876c-.117.518-1.8 6.184-1.866 6.561-.409 2.287.16 2.539.346 2.539s1.425-5.533 2.153-7.534.882-1.161.531-.7-2.753 9.4-1.642 9.4c.473 0 .914-2.245 1.642-5.323s2.036-3.435 1.355-2.546-2.227 7.939-1.355 7.576c.611-.259 0-3.092 4.815-10.451 1.462-2.231 5.315-5.023 5.719-6.38.33-.979 25.353-31.8 25.618-39.172.088-1.992-11.652-20.047-14.931-23.803z" fill="#000000"/><path d="M697.392 589.554c-2.323-1.637-4.252-6.6-5.267-11.162-.734-3.343 2.152-7.441 5.565-7.191h.1c2.328.186 14.42 11.938 21.021 21.26-2.838 2.126-8.058 5.8-9.9 8.86-1.049-1.163-9.345-10.231-11.519-11.767z" fill="#469fb9"/><path class="eo" d="M626.606 601.055s4.47 11.162 3.992 14.393l5.544.308s.415-9.976 1.919-12.591-3.688-.154-5.729-1.467-5.726-.643-5.726-.643z" fill="#000000"/><path class="ax" d="M627.846 611.127s10.662-2.195 9.567-1.063-7.526 2.844-7.526 2.844z" fill="#000000"/><path class="ax" d="M629.152 612.887s7-1.972 7.664-.866-7.441 2.439-7.441 2.439z" fill="#000000"/><path class="ax" d="M637.21 614.168c-.494-1.132-8.058.106-8.058.106l.771 1.292s7.782-.261 7.287-1.398z" fill="#000000"/><path class="eo" d="M630.598 615.447l-10.189 9.509 24.72-2.551-9.184-7.526z" fill="#000000"/><g><path class="av" d="M659.747 558.579s-6.828-17.8 18.592-21.716c5.766-.886 12.26 14.754 2.683 26.328z" fill="#000000"/><path class="ba" d="M673.006 572.418l.264 1.207s7.04-1.907 11.973.485c-.652-1.944-1.517-4.681-2.651-8.195z" fill="#000000"/><path class="ax" d="M669.03 575.524s14.286-3.469 11.992-12.332-1.997-15.283-11.22-13.439-10.109 5.679-10.065 8.82 5.527 17.629 9.293 16.95z" fill="#000000"/><path class="av" d="M661.9 550.032a20.71 20.71 0 012.575-.97 12.261 12.261 0 0114.514-2.075c9.853 4.9 2.542 24.244 2.542 24.244.68-3.214-2.749-11.916-11.458-13.005-5.4-.675-6.867-3.368-7.194-5.324l-.155.141s-5.078 3.176-2.489 9.528c-.01-.01-6.959-8.758 1.665-12.539z" fill="#000000"/></g></g></g></svg>